<svg width="40" height="40" viewBox="0 0 40 40" fill="none" xmlns="http://www.w3.org/2000/svg">
<path d="M14.1417 11.1394L13.4652 11.3846C12.4211 11.7632 11.6422 12.6764 11.4323 13.7687L11.2028 14.9715C11.0882 15.5673 11.2442 16.1775 11.6308 16.6454C12.0176 17.1137 12.5879 17.3823 13.1953 17.3823H19.0591C19.6618 17.3823 20.2292 17.1172 20.6159 16.655C21.0023 16.1932 21.1631 15.5886 21.057 14.9962L20.8429 13.7997C20.6446 12.6903 19.8631 11.7621 18.8032 11.3775L18.0861 11.1176V10.0606C18.0861 10.0309 18.0832 10.002 18.0789 9.97348C18.6021 9.44082 18.9018 8.71449 18.9018 7.97137V6.39645C18.9018 4.8591 17.651 3.6084 16.1136 3.6084C14.5761 3.6084 13.3251 4.8591 13.3251 6.39645V8.02043C13.3251 8.78434 13.6401 9.48176 14.1466 9.98824C14.1436 10.012 14.1417 10.036 14.1417 10.0605V11.1394ZM19.6892 14.006L19.9032 15.2026C19.9481 15.4527 19.8802 15.7079 19.717 15.9029C19.5536 16.0982 19.3137 16.2104 19.0589 16.2104H13.1951C12.9385 16.2104 12.6975 16.0969 12.5341 15.899C12.371 15.7015 12.3051 15.4441 12.3536 15.192L12.5831 13.9892C12.7154 13.3007 13.2064 12.7249 13.8643 12.4864L14.3075 12.3258C14.3186 12.3372 14.3297 12.3487 14.3418 12.3593C14.8467 12.8007 15.48 13.0215 16.1138 13.0214C16.7468 13.0214 17.38 12.8011 17.885 12.3605C17.9032 12.3446 17.9199 12.3275 17.9358 12.3097L18.4032 12.4792C19.0715 12.7215 19.5642 13.3065 19.6892 14.006ZM14.497 6.39645C14.497 5.50535 15.2221 4.78027 16.1133 4.78027C16.8655 4.78027 17.4975 5.29746 17.677 5.99434C17.6017 6.03113 17.5244 6.0659 17.4453 6.09754C16.7248 6.38598 16.1429 6.3477 15.9765 6.23113C15.7115 6.04535 15.3462 6.10941 15.1604 6.37441C14.9746 6.63941 15.0387 7.00473 15.3036 7.19059C15.5898 7.39129 15.9782 7.4916 16.4215 7.4916C16.8243 7.4916 17.2723 7.40793 17.7297 7.24238V7.97121C17.7297 8.4191 17.5445 8.8577 17.2214 9.17449C17.0719 9.32121 16.9006 9.43488 16.7166 9.51332C16.7037 9.51824 16.6911 9.52355 16.6786 9.52934C16.4897 9.6041 16.2878 9.64168 16.0814 9.63629C15.2077 9.61949 14.497 8.89457 14.497 8.02035V6.39645ZM16.0589 10.8081C16.0768 10.8084 16.0946 10.8086 16.1125 10.8086C16.3874 10.8086 16.6568 10.7672 16.9141 10.6879V11.6254C16.4257 11.9264 15.8014 11.9263 15.3137 11.6249V10.6896C15.5507 10.7614 15.8005 10.8031 16.0589 10.8081Z" fill="#021524"/>
<path d="M6.89551 27.4141H25.1432C25.4668 27.4141 25.7291 27.1518 25.7291 26.8281C25.7291 26.5045 25.4668 26.2422 25.1432 26.2422H6.89551C6.57184 26.2422 6.30957 26.5045 6.30957 26.8281C6.30957 27.1518 6.57184 27.4141 6.89551 27.4141Z" fill="#021524"/>
<path d="M6.89551 30.5742H25.1432C25.4668 30.5742 25.7291 30.312 25.7291 29.9883C25.7291 29.6646 25.4668 29.4023 25.1432 29.4023H6.89551C6.57184 29.4023 6.30957 29.6646 6.30957 29.9883C6.30957 30.312 6.57184 30.5742 6.89551 30.5742Z" fill="#021524"/>
<path d="M6.89551 33.7334H25.1432C25.4668 33.7334 25.7291 33.4711 25.7291 33.1475C25.7291 32.8238 25.4668 32.5615 25.1432 32.5615H6.89551C6.57184 32.5615 6.30957 32.8238 6.30957 33.1475C6.30957 33.4711 6.57184 33.7334 6.89551 33.7334Z" fill="#021524"/>
<path d="M6.89551 36.8926H25.1432C25.4668 36.8926 25.7291 36.6303 25.7291 36.3066C25.7291 35.983 25.4668 35.7207 25.1432 35.7207H6.89551C6.57184 35.7207 6.30957 35.983 6.30957 36.3066C6.30957 36.6303 6.57184 36.8926 6.89551 36.8926Z" fill="#021524"/>
<path d="M6.30957 20.5098C6.30957 20.8334 6.57184 21.0957 6.89551 21.0957H25.1432C25.4668 21.0957 25.7291 20.8334 25.7291 20.5098C25.7291 20.1861 25.4668 19.9238 25.1432 19.9238H6.89551C6.57184 19.9238 6.30957 20.1862 6.30957 20.5098Z" fill="#021524"/>
<path d="M6.89551 24.2549H25.1432C25.4668 24.2549 25.7291 23.9926 25.7291 23.6689C25.7291 23.3453 25.4668 23.083 25.1432 23.083H6.89551C6.57184 23.083 6.30957 23.3453 6.30957 23.6689C6.30957 23.9926 6.57184 24.2549 6.89551 24.2549Z" fill="#021524"/>
<path d="M4.73168 27.4165C5.05652 27.4165 5.31988 27.1532 5.31988 26.8284C5.31988 26.5036 5.05652 26.2402 4.73168 26.2402C4.40684 26.2402 4.14355 26.5035 4.14355 26.8284C4.14355 27.1532 4.40691 27.4165 4.73168 27.4165Z" fill="#021524"/>
<path d="M4.73168 21.0981C5.05652 21.0981 5.31988 20.8348 5.31988 20.51C5.31988 20.1852 5.05652 19.9219 4.73168 19.9219C4.40684 19.9219 4.14355 20.1852 4.14355 20.51C4.14355 20.8348 4.40691 21.0981 4.73168 21.0981Z" fill="#021524"/>
<path d="M4.73168 24.2573C5.05652 24.2573 5.31988 23.994 5.31988 23.6692C5.31988 23.3443 5.05652 23.0811 4.73168 23.0811C4.40684 23.0811 4.14355 23.3443 4.14355 23.6692C4.14355 23.994 4.40691 24.2573 4.73168 24.2573Z" fill="#021524"/>
<path d="M4.73168 30.5757C5.05652 30.5757 5.31988 30.3124 5.31988 29.9875C5.31988 29.6627 5.05652 29.3994 4.73168 29.3994C4.40684 29.3994 4.14355 29.6627 4.14355 29.9875C4.14355 30.3124 4.40691 30.5757 4.73168 30.5757Z" fill="#021524"/>
<path d="M4.73168 33.7358C5.05652 33.7358 5.31988 33.4725 5.31988 33.1477C5.31988 32.8229 5.05652 32.5596 4.73168 32.5596C4.40684 32.5596 4.14355 32.8229 4.14355 33.1477C4.14355 33.4725 4.40691 33.7358 4.73168 33.7358Z" fill="#021524"/>
<path d="M4.73168 36.895C5.05652 36.895 5.31988 36.6317 5.31988 36.3069C5.31988 35.9821 5.05652 35.7188 4.73168 35.7188C4.40684 35.7188 4.14355 35.982 4.14355 36.3069C4.14355 36.6316 4.40691 36.895 4.73168 36.895Z" fill="#021524"/>
<path d="M37.9396 9.2282C37.7032 8.92898 37.4797 8.64625 37.3717 8.38578C37.2551 8.10461 37.2092 7.73312 37.1606 7.33969C37.0754 6.65047 36.9788 5.8693 36.4336 5.32422C35.8885 4.77914 35.1072 4.68258 34.418 4.59734C34.0245 4.54875 33.6529 4.50281 33.3717 4.38625C33.1111 4.2782 32.8285 4.05492 32.5292 3.81844C32.1174 3.49305 31.6645 3.13578 31.129 2.97367V2.79641C31.1291 1.25453 29.8745 0 28.3324 0H3.9227C2.38059 0 1.12598 1.25453 1.12598 2.79648V5.05813C1.12598 5.3818 1.38824 5.64406 1.71191 5.64406C2.03559 5.64406 2.29785 5.3818 2.29785 5.05813V2.79648C2.29785 1.90062 3.02676 1.17188 3.9227 1.17188H28.3324C29.2283 1.17188 29.9572 1.90062 29.9572 2.79648V2.97383C29.4219 3.13602 28.9692 3.49312 28.5574 3.81852C28.2581 4.05492 27.9754 4.27828 27.715 4.38633C27.4338 4.50281 27.0621 4.54875 26.6686 4.59742C25.9794 4.68258 25.1982 4.77914 24.653 5.32422C24.1078 5.86938 24.0112 6.65055 23.926 7.33977C23.8774 7.73312 23.8314 8.10469 23.7149 8.38586C23.6068 8.64633 23.3835 8.92906 23.147 9.22828C22.7092 9.78227 22.2131 10.4102 22.2131 11.214C22.2131 12.0178 22.7093 12.6457 23.147 13.1997C23.3834 13.4989 23.6068 13.7816 23.7149 14.0421C23.8314 14.3233 23.8774 14.6948 23.926 15.0883C24.0112 15.7774 24.1078 16.5586 24.6529 17.1037C25.1981 17.6488 25.9793 17.7453 26.6686 17.8305C26.874 17.8559 27.0732 17.8809 27.257 17.9152V26.772C27.257 27.1191 27.4507 27.4291 27.7627 27.581C28.0746 27.7331 28.4381 27.6945 28.7116 27.4804L29.9571 26.5052V37.2036C29.9571 38.0995 29.2282 38.8282 28.3323 38.8282H3.9227C3.02676 38.8282 2.29785 38.0995 2.29785 37.2036V7.63836C2.29785 7.31469 2.03559 7.05242 1.71191 7.05242C1.38824 7.05242 1.12598 7.31469 1.12598 7.63836V37.2035C1.12598 38.7455 2.38059 40 3.9227 40H28.3324C29.8745 40 31.1291 38.7455 31.1291 37.2035V26.5051L32.3746 27.4802C32.5372 27.6076 32.7318 27.6729 32.9285 27.6729C33.0625 27.6729 33.1975 27.6425 33.3241 27.5809C33.6361 27.429 33.83 27.119 33.83 26.772V20.2331C33.83 19.9095 33.5678 19.6472 33.2441 19.6472C32.9204 19.6472 32.6582 19.9095 32.6582 20.2331V26.214L31.1006 24.9945C30.9432 24.8699 30.7452 24.8013 30.5431 24.8013C30.341 24.8013 30.143 24.8699 29.9881 24.9925L28.4288 26.2134V18.5083C28.4713 18.5416 28.514 18.5752 28.5573 18.6094C29.1114 19.0472 29.7393 19.5432 30.5432 19.5432C31.3471 19.5432 31.975 19.0471 32.5291 18.6095C32.8284 18.373 33.1111 18.1496 33.3716 18.0416C33.6528 17.9251 34.0244 17.8791 34.4179 17.8305C35.1072 17.7453 35.8883 17.6488 36.4336 17.1037C36.9787 16.5585 37.0753 15.7773 37.1605 15.0882C37.2092 14.6948 37.2551 14.3232 37.3717 14.042C37.4797 13.7816 37.7031 13.4988 37.9396 13.1996C38.3774 12.6456 38.8735 12.0177 38.8735 11.2139C38.8735 10.4101 38.3773 9.78219 37.9396 9.2282ZM37.0201 12.473C36.7445 12.8219 36.4595 13.1825 36.2893 13.5931C36.1117 14.0213 36.0536 14.4905 35.9975 14.9444C35.9295 15.4948 35.8653 16.0148 35.6051 16.2749C35.3449 16.5351 34.8249 16.5993 34.2743 16.6673C33.8204 16.7234 33.3512 16.7814 32.9229 16.959C32.5123 17.1292 32.1517 17.4141 31.8029 17.6898C31.3592 18.0402 30.9402 18.3713 30.5434 18.3713C30.1466 18.3713 29.7276 18.0402 29.2839 17.6898C28.9351 17.4142 28.5745 17.1292 28.1639 16.959C28.1356 16.9473 28.0375 16.9099 28.0163 16.9034C27.629 16.7687 27.2147 16.717 26.8124 16.6673C26.2618 16.5993 25.7418 16.535 25.4816 16.2748C25.2215 16.0148 25.1572 15.4948 25.0892 14.9445C25.0331 14.4905 24.9751 14.0214 24.7975 13.5931C24.6272 13.1825 24.3423 12.8219 24.0667 12.473C23.7163 12.0295 23.3852 11.6105 23.3852 11.2139C23.3852 10.8173 23.7162 10.3984 24.0667 9.95477C24.3423 9.60594 24.6273 9.24531 24.7975 8.83469C24.9751 8.40656 25.0332 7.93727 25.0892 7.48344C25.1572 6.93297 25.2215 6.41305 25.4817 6.15289C25.7419 5.89273 26.2619 5.82852 26.8125 5.76047C27.2664 5.70438 27.7356 5.64641 28.1639 5.46883C28.5745 5.29859 28.9351 5.01367 29.2839 4.73805C29.7267 4.38828 30.145 4.05797 30.5411 4.05672C30.5418 4.05672 30.5425 4.0568 30.5432 4.0568C30.544 4.0568 30.5448 4.05672 30.5456 4.05672C30.9418 4.05789 31.36 4.38828 31.8029 4.73805C32.1517 5.01359 32.5123 5.29859 32.9229 5.46883C33.3511 5.64641 33.8205 5.70445 34.2744 5.76047C34.825 5.82852 35.345 5.89281 35.6051 6.15297C35.8653 6.41313 35.9296 6.93297 35.9976 7.48344C36.0537 7.93727 36.1117 8.40648 36.2893 8.83469C36.4596 9.24531 36.7445 9.60594 37.0201 9.95477C37.3705 10.3984 37.7016 10.8173 37.7016 11.2139C37.7016 11.6105 37.3706 12.0295 37.0201 12.473Z" fill="#021524"/>
<path d="M34.3046 9.3516L32.3107 8.78746L31.1578 7.06559C31.0201 6.85996 30.7902 6.7373 30.5428 6.7373C30.2954 6.7373 30.0654 6.86004 29.9278 7.06559L28.7749 8.78746L26.7808 9.35168C26.5427 9.4191 26.3549 9.59996 26.2785 9.83527C26.2021 10.0706 26.2479 10.3272 26.4008 10.5214L27.6823 12.1498L27.6028 14.2199C27.5932 14.4672 27.7069 14.7018 27.9072 14.8473C28.0357 14.9407 28.1879 14.9889 28.3419 14.9889C28.428 14.9889 28.5146 14.9739 28.5977 14.9432L30.5426 14.2278L32.4874 14.9432C32.7197 15.0288 32.9777 14.9929 33.1779 14.8475C33.3782 14.7021 33.4921 14.4676 33.4826 14.2202L33.403 12.1497L34.6846 10.5214C34.8376 10.3269 34.8833 10.0704 34.8068 9.83512C34.7306 9.5998 34.5428 9.41902 34.3046 9.3516ZM32.3837 11.5503C32.2754 11.6881 32.2194 11.8604 32.2261 12.0361L32.2869 13.6208L30.7983 13.0732C30.6334 13.0125 30.4518 13.0126 30.2872 13.0732L28.7985 13.6208L28.8594 12.0356C28.8659 11.8605 28.8098 11.6882 28.7013 11.5499L27.7205 10.3036L29.247 9.87184C29.4158 9.82395 29.5626 9.71723 29.6602 9.57144L30.5426 8.25348L31.425 9.57129C31.5226 9.71715 31.6694 9.82387 31.8386 9.87191L33.3647 10.3036L32.3837 11.5503Z" fill="#021524"/>
</svg>
