<svg width="40" height="40" viewBox="0 0 40 40" fill="none" xmlns="http://www.w3.org/2000/svg">
<g clip-path="url(#clip0_8269_2190)">
<path d="M14.1367 22.3112C13.2592 22.8675 12.2605 23.2041 11.2253 23.2926C10.9095 22.1385 9.86251 21.3369 8.66602 21.3332H5.33268C3.85992 21.3332 2.66602 22.5271 2.66602 23.9999V37.3332C2.66602 38.806 3.85992 39.9999 5.33268 39.9999H8.66602C9.87297 39.9951 10.9262 39.1803 11.234 38.0132C11.8001 38.043 12.3549 38.1829 12.8673 38.4252C13.1247 38.5472 13.3707 38.6919 13.6173 38.8345C13.9854 39.059 14.3688 39.2573 14.7647 39.4279C15.7969 39.8218 16.8946 40.0159 17.9993 39.9999H29.9993C30.9852 39.9994 31.8903 39.455 32.3529 38.5845C32.8155 37.7139 32.76 36.6591 32.2087 35.8419C32.9902 35.5729 33.6019 34.9553 33.8633 34.1712C34.1246 33.3871 34.0059 32.526 33.542 31.8419C34.522 31.5065 35.2166 30.6306 35.3198 29.5999C35.423 28.5693 34.916 27.573 34.022 27.0499C34.4352 26.5732 34.6637 25.9641 34.666 25.3332C34.666 23.8605 33.4721 22.6666 31.9993 22.6666H23.578C24.6207 20.6812 26.5153 16.2432 24.6713 13.0152C23.86 11.5972 22.1647 10.4879 20.364 11.4052C18.4853 12.3599 18.906 14.2459 19.1087 15.1512C19.6253 17.4739 17.9527 19.8832 14.1367 22.3112ZM8.66602 38.6665H5.33268C4.5963 38.6665 3.99935 38.0696 3.99935 37.3332V23.9999C3.99935 23.2635 4.5963 22.6666 5.33268 22.6666H8.66602C9.4024 22.6666 9.99935 23.2635 9.99935 23.9999V37.3332C9.99935 38.0696 9.4024 38.6665 8.66602 38.6665ZM20.41 14.8612C20.1087 13.5126 20.244 12.9619 20.9687 12.5946C22.1447 11.9946 23.1227 12.9946 23.514 13.6779C25.5067 17.1672 21.9067 22.9186 21.87 22.9766C21.74 23.1818 21.732 23.4415 21.8491 23.6544C21.9661 23.8673 22.1897 23.9997 22.4327 23.9999H31.9993C32.7357 23.9999 33.3327 24.5968 33.3327 25.3332C33.3327 26.0696 32.7357 26.6666 31.9993 26.6666H27.9993C27.6312 26.6666 27.3327 26.965 27.3327 27.3332C27.3327 27.7014 27.6312 27.9999 27.9993 27.9999H32.666C33.4024 27.9999 33.9993 28.5968 33.9993 29.3332C33.9993 30.0696 33.4024 30.6666 32.666 30.6666H27.9993C27.6312 30.6666 27.3327 30.965 27.3327 31.3332C27.3327 31.7014 27.6312 31.9999 27.9993 31.9999H31.3327C32.0691 31.9999 32.666 32.5968 32.666 33.3332C32.666 34.0696 32.0691 34.6665 31.3327 34.6665H27.9993C27.6312 34.6665 27.3327 34.965 27.3327 35.3332C27.3327 35.7014 27.6312 35.9999 27.9993 35.9999H29.9993C30.7357 35.9999 31.3327 36.5968 31.3327 37.3332C31.3327 38.0696 30.7357 38.6665 29.9993 38.6665H17.9993C17.0664 38.6828 16.1388 38.5218 15.266 38.1919C14.9282 38.0445 14.6009 37.8739 14.2867 37.6812C14.0093 37.5199 13.7307 37.3599 13.442 37.2219C12.7797 36.9103 12.0635 36.7293 11.3327 36.6886V24.6339C12.5853 24.5229 13.7926 24.1113 14.852 23.4339C19.192 20.6752 21.062 17.7906 20.41 14.8612Z" fill="#021524"/>
<path d="M28.006 0.647606V0.661606V0.66694C28.006 0.912273 27.9453 6.66694 22.6667 6.66694C22.2985 6.66694 22 6.96542 22 7.33361C22 7.7018 22.2985 8.00027 22.6667 8.00027C27.9247 8.00027 28.0053 13.7563 28.006 14.0003C28.001 14.3685 28.2955 14.671 28.6637 14.6759C29.0319 14.6809 29.3344 14.3865 29.3393 14.0183V14.0043V14.0003C29.3393 13.7549 29.4 8.00027 34.6793 8.00027C35.0475 8.00027 35.346 7.7018 35.346 7.33361C35.346 6.96542 35.0475 6.66694 34.6793 6.66694C29.4207 6.66694 29.3407 0.91094 29.3393 0.66694C29.3443 0.29875 29.0499 -0.00375649 28.6817 -0.00872705C28.3135 -0.0136976 28.011 0.28075 28.006 0.64894V0.647606ZM31.6393 7.33361C30.2742 8.05375 29.219 9.24764 28.672 10.6909C28.1254 9.24745 27.0701 8.05346 25.7047 7.33361C27.0701 6.61376 28.1254 5.41977 28.672 3.97627C29.219 5.41958 30.2742 6.61346 31.6393 7.33361Z" fill="#021524"/>
<path d="M11.3324 8.66672V8.66272C11.3313 8.29453 11.0319 7.99695 10.6637 7.99805C10.2955 7.99915 9.99792 8.29853 9.99902 8.66672C9.99902 8.83005 9.94302 12.6667 6.66569 12.6667C6.2975 12.6667 5.99902 12.9652 5.99902 13.3334C5.99902 13.7016 6.2975 14.0001 6.66569 14.0001C9.94302 14.0001 9.99902 17.8381 9.99902 18.0001V18.0041C10.0001 18.3722 10.2995 18.6698 10.6677 18.6687C11.0359 18.6676 11.3335 18.3682 11.3324 18.0001C11.3324 17.8367 11.3884 14.0001 14.6657 14.0001C15.0339 14.0001 15.3324 13.7016 15.3324 13.3334C15.3324 12.9652 15.0339 12.6667 14.6657 12.6667C11.3884 12.6667 11.3324 8.82872 11.3324 8.66672ZM12.2284 13.3334C11.5533 13.7837 11.0132 14.4088 10.6657 15.142C10.3182 14.4088 9.77808 13.7837 9.10302 13.3334C9.77821 12.8833 10.3184 12.2581 10.6657 11.5247C11.013 12.2581 11.5532 12.8833 12.2284 13.3334Z" fill="#021524"/>
<path d="M33.9987 14C33.6305 14 33.332 14.2985 33.332 14.6667V16C33.332 16.3682 33.6305 16.6667 33.9987 16.6667C34.3669 16.6667 34.6654 16.3682 34.6654 16V14.6667C34.6654 14.2985 34.3669 14 33.9987 14Z" fill="#021524"/>
<path d="M33.9987 20.6667C34.3669 20.6667 34.6654 20.3682 34.6654 20V18.6667C34.6654 18.2985 34.3669 18 33.9987 18C33.6305 18 33.332 18.2985 33.332 18.6667V20C33.332 20.3682 33.6305 20.6667 33.9987 20.6667Z" fill="#021524"/>
<path d="M35.3327 18.0003H36.666C37.0342 18.0003 37.3327 17.7018 37.3327 17.3337C37.3327 16.9655 37.0342 16.667 36.666 16.667H35.3327C34.9645 16.667 34.666 16.9655 34.666 17.3337C34.666 17.7018 34.9645 18.0003 35.3327 18.0003Z" fill="#021524"/>
<path d="M32.666 18.0003C33.0342 18.0003 33.3327 17.7018 33.3327 17.3337C33.3327 16.9655 33.0342 16.667 32.666 16.667H31.3327C30.9645 16.667 30.666 16.9655 30.666 17.3337C30.666 17.7018 30.9645 18.0003 31.3327 18.0003H32.666Z" fill="#021524"/>
<path d="M17.1948 6.1384L18.1948 7.1384C18.4563 7.39104 18.8721 7.38743 19.1293 7.13028C19.3865 6.87312 19.3901 6.45732 19.1374 6.19573L18.1374 5.19573C17.97 5.02243 17.7222 4.95292 17.4891 5.01393C17.256 5.07494 17.074 5.25697 17.013 5.49006C16.9519 5.72314 17.0214 5.97101 17.1948 6.1384Z" fill="#021524"/>
<path d="M15.195 4.1386C15.4565 4.39125 15.8723 4.38763 16.1295 4.13048C16.3867 3.87332 16.3903 3.45752 16.1376 3.19593L15.1376 2.19593C14.876 1.94328 14.4602 1.9469 14.2031 2.20405C13.9459 2.46121 13.9423 2.87701 14.195 3.1386L15.195 4.1386Z" fill="#021524"/>
<path d="M14.1942 7.1384C14.4545 7.39865 14.8765 7.39865 15.1369 7.1384L16.1369 6.1384C16.3102 5.97101 16.3797 5.72314 16.3187 5.49006C16.2577 5.25697 16.0756 5.07494 15.8426 5.01393C15.6095 4.95292 15.3616 5.02243 15.1942 5.19573L14.1942 6.19573C13.934 6.45606 13.934 6.87806 14.1942 7.1384Z" fill="#021524"/>
<path d="M17.6656 4.33373C17.8424 4.33369 18.0119 4.26343 18.1369 4.1384L19.1369 3.1384C19.3102 2.97101 19.3797 2.72314 19.3187 2.49006C19.2577 2.25697 19.0757 2.07494 18.8426 2.01393C18.6095 1.95292 18.3616 2.02243 18.1942 2.19573L17.1942 3.19573C17.0036 3.38639 16.9466 3.67309 17.0498 3.92217C17.1529 4.17124 17.396 4.33367 17.6656 4.33373Z" fill="#021524"/>
</g>
<defs>
<clipPath id="clip0_8269_2190">
<rect width="40" height="40" fill="white"/>
</clipPath>
</defs>
</svg>
