<svg width="34" height="40" viewBox="0 0 34 40" fill="none" xmlns="http://www.w3.org/2000/svg">
<path d="M16.7038 8.62207C11.0423 8.62207 6.41699 13.2474 6.41699 18.9088C6.41699 21.8691 7.71209 24.7183 9.89525 26.6424C11.5234 28.2705 11.3754 31.7488 11.3384 31.7858C11.3384 31.9708 11.3754 32.1188 11.5234 32.2668C11.6344 32.3779 11.8194 32.4519 11.9674 32.4519H21.4031C21.5881 32.4519 21.7361 32.3779 21.8471 32.2668C21.9582 32.1558 22.0322 31.9708 22.0322 31.7858C22.0322 31.7488 21.8471 28.2705 23.4753 26.6424C23.5123 26.6054 23.5493 26.5684 23.5863 26.5314C25.7324 24.5703 26.9905 21.7951 26.9905 18.9088C26.9905 13.2474 22.3652 8.62207 16.7038 8.62207ZM22.6242 25.6804C22.5872 25.7174 22.5132 25.7914 22.5132 25.8284C21.0701 27.3825 20.8111 29.9357 20.7741 31.1568H12.5965C12.5595 29.9357 12.3004 27.2715 10.7463 25.6804C8.78517 23.9782 7.63808 21.499 7.63808 18.8718C7.63808 13.8765 11.6714 9.84316 16.6668 9.84316C21.6621 9.84316 25.6954 13.8765 25.6954 18.8718C25.6954 21.499 24.5854 23.9782 22.6242 25.6804Z" fill="#021524"/>
<path d="M16.6662 11.249C16.3331 11.249 16.0371 11.545 16.0371 11.8781C16.0371 12.2111 16.3331 12.5071 16.6662 12.5071C20.4034 12.5071 23.4007 15.5413 23.4007 19.2416C23.4007 19.5746 23.6967 19.8707 24.0297 19.8707C24.3627 19.8707 24.6588 19.5746 24.6588 19.2416C24.6958 14.8383 21.1065 11.249 16.6662 11.249Z" fill="#021524"/>
<path d="M20.7736 33.1543H12.559C11.7079 33.1543 11.0049 33.8574 11.0049 34.7084C11.0049 35.5595 11.7079 36.2625 12.559 36.2625H20.7366C21.6247 36.2255 22.3277 35.5595 22.3277 34.7084C22.3277 33.8574 21.6247 33.1543 20.7736 33.1543ZM20.7736 34.9674H12.559C12.411 34.9674 12.263 34.8564 12.263 34.6714C12.263 34.4864 12.374 34.3754 12.559 34.3754H20.7366C20.8846 34.3754 21.0326 34.4864 21.0326 34.6714C21.0326 34.8564 20.9216 34.9674 20.7736 34.9674Z" fill="#021524"/>
<path d="M19.5521 36.8916H13.7797C12.9286 36.8916 12.2256 37.5947 12.2256 38.4457C12.2256 39.2968 12.9286 39.9998 13.7797 39.9998H19.5521C20.4032 39.9998 21.1063 39.2968 21.1063 38.4457C21.1063 37.5577 20.4032 36.8916 19.5521 36.8916ZM19.5521 38.7047H13.7797C13.6317 38.7047 13.4837 38.5937 13.4837 38.4087C13.4837 38.2237 13.5947 38.1127 13.7797 38.1127H19.5521C19.7001 38.1127 19.8482 38.2237 19.8482 38.4087C19.8482 38.5937 19.7001 38.7047 19.5521 38.7047Z" fill="#021524"/>
<path d="M16.6662 5.55042C17.0362 5.55042 17.2952 5.25439 17.2952 4.92137V0.629047C17.2952 0.296022 16.9992 0 16.6662 0C16.3331 0 16.0371 0.296022 16.0371 0.629047V4.92137C16.0371 5.25439 16.3331 5.55042 16.6662 5.55042Z" fill="#021524"/>
<path d="M27.1384 3.18252C26.8424 2.9605 26.4723 3.07151 26.2873 3.33053L23.9191 6.88279C23.6971 7.17882 23.7711 7.58585 24.0671 7.77086C24.1781 7.84487 24.2892 7.88187 24.4002 7.88187C24.6222 7.88187 24.8072 7.77086 24.9182 7.58585L27.2864 4.03358C27.5084 3.77456 27.4344 3.36753 27.1384 3.18252Z" fill="#021524"/>
<path d="M9.15516 7.7336C9.26617 7.7336 9.37718 7.6966 9.48819 7.62259C9.78421 7.43758 9.85821 7.03055 9.6732 6.73453L7.37903 3.14526C7.19401 2.84923 6.78698 2.77523 6.49096 2.96024C6.19494 3.14526 6.12093 3.55229 6.30595 3.84831L8.60012 7.43758C8.74813 7.6596 8.93314 7.7336 9.15516 7.7336Z" fill="#021524"/>
<path d="M4.67747 11.6561L0.940191 9.62094C0.644169 9.47293 0.237139 9.58394 0.0891275 9.87996C-0.0958864 10.176 0.0151218 10.583 0.348147 10.731L4.08543 12.7662C4.19644 12.8032 4.27044 12.8402 4.38145 12.8402C4.60347 12.8402 4.82548 12.7292 4.93649 12.5072C5.0845 12.2111 4.97349 11.8041 4.67747 11.6561Z" fill="#021524"/>
<path d="M33.2807 9.87996C33.1327 9.58394 32.7257 9.47293 32.4296 9.62094L28.6554 11.6561C28.3593 11.8041 28.2483 12.2111 28.3963 12.5072C28.5073 12.7292 28.7294 12.8402 28.9514 12.8402C29.0624 12.8402 29.1734 12.8032 29.2474 12.7662L33.0217 10.731C33.3177 10.583 33.4287 10.176 33.2807 9.87996Z" fill="#021524"/>
</svg>
