<svg width="23" height="18" viewBox="0 0 23 18" fill="none" xmlns="http://www.w3.org/2000/svg">
<path d="M12.9063 17.209H1.43403C0.573612 17.209 0 16.6353 0 15.7749C0 14.9144 0.573612 14.3408 1.43403 14.3408H12.9063C13.7667 14.3408 14.3403 14.9144 14.3403 15.7749C14.3403 16.6353 13.7667 17.209 12.9063 17.209Z" fill="#021524"/>
<path d="M21.5104 10.039H1.43403C0.573612 10.039 0 9.4654 0 8.60496C0 7.74452 0.573612 7.1709 1.43403 7.1709H21.5104C22.3709 7.1709 22.9445 7.74452 22.9445 8.60496C22.9445 9.4654 22.3709 10.039 21.5104 10.039Z" fill="#021524"/>
<path d="M21.5103 2.86813H10.038C9.17762 2.86813 8.604 2.2945 8.604 1.43407C8.604 0.573626 9.17762 0 10.038 0H21.5103C22.3707 0 22.9443 0.573626 22.9443 1.43407C22.9443 2.2945 22.3707 2.86813 21.5103 2.86813Z" fill="#021524"/>
</svg>
