<svg width="24" height="25" viewBox="0 0 24 25" fill="none" xmlns="http://www.w3.org/2000/svg">
<path d="M0 13.6748L10.2773 24.9995H14.6454L0 8.86133V13.6748Z" fill="#021524"/>
<path d="M0 4.81353L18.3195 25H22.6879L0 0V4.81353Z" fill="#021524"/>
<path d="M23.3928 7.29244C23.3937 7.26442 23.3957 7.23641 23.3963 7.20839H23.3889C23.2185 3.25573 19.9541 0.0917969 15.9603 0.0917969H4.5625L7.49808 3.32658H15.9603C18.1976 3.32658 20.0301 5.08311 20.1564 7.28923C20.0301 9.49535 18.1976 11.2519 15.9603 11.2519H14.8836L17.643 14.2924C20.835 13.5507 23.2437 10.7495 23.3892 7.37007H23.3963C23.396 7.34398 23.3937 7.31853 23.3928 7.29244Z" fill="#021524"/>
</svg>
