<svg width="123" height="25" viewBox="0 0 123 25" fill="none" xmlns="http://www.w3.org/2000/svg">
<path d="M40.1793 6.25V10.6944H42.7861C43.3886 10.6944 43.7941 10.544 44.0026 10.2431C44.2112 9.91898 44.3155 9.52546 44.3155 9.0625V7.88194C44.3155 7.41898 44.2112 7.03704 44.0026 6.73611C43.7941 6.41204 43.3886 6.25 42.7861 6.25H40.1793ZM38.9281 25H33.5755C33.1352 25 32.8108 24.9074 32.6023 24.7222C32.4169 24.5139 32.3242 24.1898 32.3242 23.75V1.25C32.3242 0.810186 32.4169 0.497686 32.6023 0.3125C32.8108 0.104167 33.1352 0 33.5755 0H45.1496C47.7448 0 49.529 0.543981 50.5022 1.63194C51.4986 2.69676 51.9968 4.08565 51.9968 5.79861V7.39583C51.9968 8.36806 51.8462 9.20139 51.545 9.89583C51.2669 10.5671 50.7687 11.0532 50.0504 11.3542C51.3017 11.4931 52.3096 12.0023 53.0743 12.8819C53.8621 13.7616 54.256 14.9306 54.256 16.3889V23.75C54.256 24.1898 54.1517 24.5139 53.9432 24.7222C53.7578 24.9074 53.445 25 53.0048 25H47.6174C47.1771 25 46.8527 24.9074 46.6442 24.7222C46.4588 24.5139 46.3661 24.1898 46.3661 23.75V18.4375C46.3661 17.9282 46.2619 17.5579 46.0533 17.3264C45.8679 17.0718 45.532 16.9444 45.0454 16.9444H40.1793V23.75C40.1793 24.1898 40.0751 24.5139 39.8665 24.7222C39.6812 24.9074 39.3683 25 38.9281 25Z" fill="#021524"/>
<path d="M73.4477 25H57.3204C56.8801 25 56.5557 24.9074 56.3472 24.7222C56.1618 24.5139 56.0691 24.1898 56.0691 23.75V1.25C56.0691 0.810186 56.1618 0.497686 56.3472 0.3125C56.5557 0.104167 56.8801 0 57.3204 0H73.4477C73.888 0 74.2008 0.104167 74.3862 0.3125C74.5947 0.497686 74.699 0.810186 74.699 1.25V5.3125C74.699 5.75231 74.5947 6.07639 74.3862 6.28472C74.2008 6.46991 73.888 6.5625 73.4477 6.5625H63.8547V9.23611H70.6324C71.0726 9.23611 71.3854 9.34028 71.5708 9.54861C71.7794 9.7338 71.8836 10.0463 71.8836 10.4861V14.2014C71.8836 14.6412 71.7794 14.9653 71.5708 15.1736C71.3854 15.3588 71.0726 15.4514 70.6324 15.4514H63.8547V18.4375H73.4477C73.888 18.4375 74.2008 18.5417 74.3862 18.75C74.5947 18.9352 74.699 19.2477 74.699 19.6875V23.75C74.699 24.1898 74.5947 24.5139 74.3862 24.7222C74.2008 24.9074 73.888 25 73.4477 25Z" fill="#021524"/>
<path d="M83.19 25H77.9765C77.5362 25 77.2118 24.9074 77.0033 24.7222C76.8179 24.5139 76.7252 24.1898 76.7252 23.75V1.25C76.7252 0.810186 76.8179 0.497686 77.0033 0.3125C77.2118 0.104167 77.5362 0 77.9765 0H81.5912C82.0315 0 82.4022 0.0694442 82.7034 0.208333C83.0278 0.347223 83.3407 0.590278 83.6419 0.9375L90.3848 8.64583V1.25C90.3848 0.810186 90.4775 0.497686 90.6628 0.3125C90.8714 0.104167 91.1958 0 91.636 0H96.8496C97.2899 0 97.6027 0.104167 97.7881 0.3125C97.9966 0.497686 98.1009 0.810186 98.1009 1.25V23.75C98.1009 24.1898 97.9966 24.5139 97.7881 24.7222C97.6027 24.9074 97.2899 25 96.8496 25H91.636C91.1958 25 90.8714 24.9074 90.6628 24.7222C90.4775 24.5139 90.3848 24.1898 90.3848 23.75V19.4792L84.4413 12.2917V23.75C84.4413 24.1898 84.337 24.5139 84.1285 24.7222C83.9431 24.9074 83.6303 25 83.19 25Z" fill="#021524"/>
<path d="M113.774 25H102.061C101.621 25 101.296 24.9074 101.088 24.7222C100.902 24.5139 100.81 24.1898 100.81 23.75V1.25C100.81 0.810186 100.902 0.497686 101.088 0.3125C101.296 0.104167 101.621 0 102.061 0H113.774C116.67 0 118.814 0.578704 120.204 1.73611C121.617 2.89352 122.324 4.67593 122.324 7.08333V17.9167C122.324 20.3241 121.617 22.1065 120.204 23.2639C118.814 24.4213 116.67 25 113.774 25ZM108.699 6.63194V18.4375H112.836C113.392 18.4375 113.797 18.2986 114.052 18.0208C114.33 17.7431 114.469 17.3148 114.469 16.7361V8.29861C114.469 7.71991 114.33 7.30324 114.052 7.04861C113.797 6.77083 113.392 6.63194 112.836 6.63194H108.699Z" fill="#021524"/>
<path d="M0 13.6748L10.2773 24.9995H14.6454L0 8.86133V13.6748Z" fill="#021524"/>
<path d="M0 4.81353L18.3195 25H22.6879L0 0V4.81353Z" fill="#021524"/>
<path d="M23.3928 7.29244C23.3937 7.26442 23.3957 7.23641 23.3963 7.20839H23.3889C23.2185 3.25573 19.9541 0.0917969 15.9603 0.0917969H4.5625L7.49808 3.32658H15.9603C18.1976 3.32658 20.0301 5.08311 20.1564 7.28923C20.0301 9.49535 18.1976 11.2519 15.9603 11.2519H14.8836L17.643 14.2924C20.835 13.5507 23.2437 10.7495 23.3892 7.37007H23.3963C23.396 7.34398 23.3937 7.31853 23.3928 7.29244Z" fill="#021524"/>
</svg>
