<svg width="294" height="60" viewBox="0 0 294 60" fill="none" xmlns="http://www.w3.org/2000/svg">
<path d="M96.4304 15V25.6667H102.687C104.133 25.6667 105.106 25.3056 105.606 24.5833C106.107 23.8056 106.357 22.8611 106.357 21.75V18.9167C106.357 17.8056 106.107 16.8889 105.606 16.1667C105.106 15.3889 104.133 15 102.687 15H96.4304ZM93.4274 60H80.5811C79.5245 60 78.746 59.7778 78.2455 59.3333C77.8006 58.8333 77.5781 58.0556 77.5781 57V3C77.5781 1.94445 77.8006 1.19445 78.2455 0.75C78.746 0.25 79.5245 0 80.5811 0H108.359C114.588 0 118.87 1.30556 121.205 3.91667C123.597 6.47222 124.792 9.80556 124.792 13.9167V17.75C124.792 20.0833 124.431 22.0833 123.708 23.75C123.041 25.3611 121.845 26.5278 120.121 27.25C123.124 27.5833 125.543 28.8056 127.378 30.9167C129.269 33.0278 130.214 35.8333 130.214 39.3333V57C130.214 58.0556 129.964 58.8333 129.464 59.3333C129.019 59.7778 128.268 60 127.211 60H114.282C113.225 60 112.447 59.7778 111.946 59.3333C111.501 58.8333 111.279 58.0556 111.279 57V44.25C111.279 43.0278 111.028 42.1389 110.528 41.5833C110.083 40.9722 109.277 40.6667 108.109 40.6667H96.4304V57C96.4304 58.0556 96.1802 58.8333 95.6797 59.3333C95.2348 59.7778 94.484 60 93.4274 60Z" fill="#021524"/>
<path d="M176.274 60H137.569C136.512 60 135.734 59.7778 135.233 59.3333C134.788 58.8333 134.566 58.0556 134.566 57V3C134.566 1.94445 134.788 1.19445 135.233 0.75C135.734 0.25 136.512 0 137.569 0H176.274C177.331 0 178.082 0.25 178.527 0.75C179.027 1.19445 179.278 1.94445 179.278 3V12.75C179.278 13.8056 179.027 14.5833 178.527 15.0833C178.082 15.5278 177.331 15.75 176.274 15.75H153.251V22.1667H169.518C170.574 22.1667 171.325 22.4167 171.77 22.9167C172.27 23.3611 172.521 24.1111 172.521 25.1667V34.0833C172.521 35.1389 172.27 35.9167 171.77 36.4167C171.325 36.8611 170.574 37.0833 169.518 37.0833H153.251V44.25H176.274C177.331 44.25 178.082 44.5 178.527 45C179.027 45.4445 179.278 46.1944 179.278 47.25V57C179.278 58.0556 179.027 58.8333 178.527 59.3333C178.082 59.7778 177.331 60 176.274 60Z" fill="#021524"/>
<path d="M199.656 60H187.144C186.087 60 185.308 59.7778 184.808 59.3333C184.363 58.8333 184.14 58.0556 184.14 57V3C184.14 1.94445 184.363 1.19445 184.808 0.75C185.308 0.25 186.087 0 187.144 0H195.819C196.876 0 197.765 0.166666 198.488 0.499999C199.267 0.833334 200.018 1.41667 200.741 2.25L216.924 20.75V3C216.924 1.94445 217.146 1.19445 217.591 0.75C218.091 0.25 218.87 0 219.927 0H232.439C233.496 0 234.247 0.25 234.691 0.75C235.192 1.19445 235.442 1.94445 235.442 3V57C235.442 58.0556 235.192 58.8333 234.691 59.3333C234.247 59.7778 233.496 60 232.439 60H219.927C218.87 60 218.091 59.7778 217.591 59.3333C217.146 58.8333 216.924 58.0556 216.924 57V46.75L202.659 29.5V57C202.659 58.0556 202.409 58.8333 201.908 59.3333C201.463 59.7778 200.713 60 199.656 60Z" fill="#021524"/>
<path d="M273.057 60H244.946C243.889 60 243.111 59.7778 242.61 59.3333C242.165 58.8333 241.943 58.0556 241.943 57V3C241.943 1.94445 242.165 1.19445 242.61 0.75C243.111 0.25 243.889 0 244.946 0H273.057C280.009 0 285.153 1.38889 288.49 4.16667C291.882 6.94445 293.578 11.2222 293.578 17V43C293.578 48.7778 291.882 53.0556 288.49 55.8333C285.153 58.6111 280.009 60 273.057 60ZM260.879 15.9167V44.25H270.805C272.14 44.25 273.113 43.9167 273.725 43.25C274.392 42.5833 274.726 41.5556 274.726 40.1667V19.9167C274.726 18.5278 274.392 17.5278 273.725 16.9167C273.113 16.25 272.14 15.9167 270.805 15.9167H260.879Z" fill="#021524"/>
<path d="M0 32.82L24.6655 59.9992H35.149L0 21.2676V32.82Z" fill="#021524"/>
<path d="M0 11.5525L43.9668 60H54.451L0 0V11.5525Z" fill="#021524"/>
<path d="M56.1419 17.5023C56.1442 17.435 56.1488 17.3678 56.1504 17.3005H56.1326C55.7237 7.81415 47.8891 0.220703 38.3038 0.220703H10.9492L17.9946 7.98419H38.3038C43.6735 7.98419 48.0715 12.1999 48.3745 17.4945C48.0715 22.7892 43.6735 27.0049 38.3038 27.0049H35.7198L42.3424 34.3023C50.0031 32.5222 55.784 25.7991 56.1334 17.6886H56.1504C56.1496 17.6259 56.1442 17.5649 56.1419 17.5023Z" fill="#021524"/>
</svg>
