<svg width="30" height="21" viewBox="0 0 30 21" fill="none" xmlns="http://www.w3.org/2000/svg">
<path d="M7.03125 0C3.1534 0 0 3.15428 0 7.03125C0 10.5709 2.62816 13.508 6.03732 13.9921C5.76439 15.9748 5.00736 17.8614 3.82459 19.4973C3.59455 19.8166 3.60316 20.2492 3.84861 20.5581C4.08943 20.8622 4.50791 20.9774 4.87518 20.8225C10.4559 18.4931 14.0625 13.0789 14.0625 7.03125C14.0625 3.15428 10.9091 0 7.03125 0ZM22.9688 0C19.0909 0 15.9375 3.15428 15.9375 7.03125C15.9375 10.5709 18.5657 13.508 21.9748 13.9921C21.7019 15.9748 20.9449 17.8614 19.7621 19.4973C19.5321 19.8166 19.5407 20.2492 19.7861 20.5581C20.0269 20.8622 20.4454 20.9774 20.8127 20.8225C26.3934 18.4931 30 13.0789 30 7.03125C30 3.15428 26.8466 0 22.9688 0Z" fill="white"/>
</svg>
