<svg width="50" height="47" viewBox="0 0 50 47" fill="none" xmlns="http://www.w3.org/2000/svg">
<path d="M22.1931 34.9424C21.1361 34.9424 20.2769 34.0839 20.2769 33.0269C20.2769 31.97 21.1361 31.1115 22.1931 31.1115C23.2501 31.1115 24.1093 31.97 24.1093 33.0269C24.1093 34.0839 23.2501 34.9424 22.1931 34.9424ZM22.1931 32.7245C22.0261 32.7245 21.8899 32.8599 21.8899 33.0269C21.8899 33.3609 22.4963 33.3609 22.4963 33.0269C22.4963 32.8599 22.3601 32.7245 22.1931 32.7245ZM29.3965 34.9424C28.3395 34.9424 27.4811 34.0839 27.4811 33.0269C27.4811 31.97 28.3396 31.1115 29.3965 31.1115C30.4535 31.1115 31.312 31.97 31.312 33.0269C31.312 34.0839 30.4535 34.9424 29.3965 34.9424ZM29.3965 32.7245C29.2295 32.7245 29.0941 32.8599 29.0941 33.0269C29.0941 33.3609 29.699 33.3609 29.699 33.0269C29.699 32.8599 29.5635 32.7245 29.3965 32.7245ZM35.4296 16.5487C35.072 16.0824 34.5285 15.8154 33.941 15.8154H15.616L15.1385 14.0299C14.8967 13.1234 14.0729 12.4909 13.1349 12.4909H11.933C11.4872 12.4909 11.1265 12.8517 11.1265 13.2974C11.1265 13.7432 11.4872 14.104 11.933 14.104H13.1349C13.3436 14.104 13.5263 14.2449 13.5806 14.4466L17.4328 28.8495C17.7148 29.9049 18.6749 30.6421 19.7673 30.6421H32.6966C33.1424 30.6421 33.5031 30.2813 33.5031 29.8355C33.5031 29.3898 33.1424 29.029 32.6966 29.029H19.7673C19.4042 29.029 19.0844 28.7833 18.9907 28.4336L18.6966 27.3341H21.3661H28.9759H30.8363C32.2965 27.3341 33.5803 26.348 33.9583 24.9366L35.7556 18.1766C35.9068 17.608 35.7871 17.0149 35.4296 16.5487ZM34.1505 17.5316C34.1804 17.5702 34.2261 17.6513 34.1962 17.7624L33.3967 20.7686H30.5638L31.0132 17.4284H33.941C34.0544 17.4284 34.1206 17.493 34.1505 17.5316ZM28.9373 20.7687H25.9736V17.4284H29.3871L28.9373 20.7687ZM24.3606 17.4284V20.7687H21.3998L20.9471 17.4284H24.3606ZM19.3192 17.4284L19.7718 20.7687H16.9447L16.0498 17.4284H19.3192ZM19.9903 22.3817L20.4427 25.7211H18.2716L17.3769 22.3817H19.9903ZM21.6184 22.3817H24.3606V25.7211H22.071L21.6184 22.3817ZM25.9736 25.7211V22.3817H28.72L28.2703 25.7211H25.9736ZM30.8363 25.7211H29.8975L30.3468 22.3817H32.9677L32.3989 24.5208C32.2098 25.2281 31.5672 25.7211 30.8363 25.7211ZM13.6593 3.70396C13.6593 3.28634 13.3214 2.94841 12.9038 2.94841H4.60716C4.18954 2.94841 3.8516 3.28634 3.8516 3.70396C3.8516 4.12159 4.18953 4.45952 4.60716 4.45952H12.9038C13.3214 4.45952 13.6593 4.12159 13.6593 3.70396ZM36.4439 3.70387C36.4439 4.14929 36.0829 4.51037 35.6374 4.51037C35.192 4.51037 34.8309 4.14929 34.8309 3.70387C34.8309 3.25845 35.192 2.89736 35.6374 2.89736C36.0829 2.89737 36.4439 3.25845 36.4439 3.70387ZM38.9647 2.89737C38.5193 2.89737 38.1582 3.25845 38.1582 3.70388C38.1582 4.1493 38.5193 4.51038 38.9647 4.51038C39.4101 4.51038 39.7712 4.1493 39.7712 3.70388C39.7712 3.25845 39.4101 2.89737 38.9647 2.89737ZM42.2919 2.89737C41.8465 2.89737 41.4854 3.25845 41.4854 3.70388C41.4854 4.1493 41.8465 4.51038 42.2919 4.51038C42.7374 4.51038 43.0984 4.1493 43.0984 3.70388C43.0984 3.25845 42.7374 2.89737 42.2919 2.89737ZM49.4095 38.1401L46.936 36.0547C46.9377 36.0049 46.9453 35.9561 46.9453 35.9063V4.39844C46.9453 1.97653 44.9687 0 42.5469 0H4.39844C1.97658 0 0 1.97654 0 4.39844V35.9063C0 38.3281 1.97659 40.3047 4.39844 40.3047H38.2562L38.2571 43.3256C38.2571 43.9762 38.6225 44.5511 39.2116 44.8268C39.796 45.0993 40.4749 45.0142 40.9743 44.6L42.4849 43.3445L43.3261 45.1513C43.586 45.7152 44.0522 46.1437 44.635 46.3563C44.895 46.4509 45.1659 46.4981 45.4337 46.4981C45.7676 46.4981 46.1016 46.4256 46.4135 46.2807C46.9758 46.0192 47.4043 45.553 47.617 44.9701C47.8296 44.3857 47.8028 43.7541 47.5397 43.1933L46.7002 41.385L48.6329 41.04C49.2725 40.925 49.7734 40.4634 49.942 39.835C50.1105 39.208 49.9057 38.5575 49.4095 38.1401ZM1.60937 4.39844C1.60937 2.86717 2.85935 1.61719 4.39844 1.61719H42.5469C44.0859 1.61719 45.336 2.86717 45.336 4.39844V5.78904H1.60937V4.39844ZM38.2539 32.2976L38.2557 38.6875H4.39844C2.85935 38.6875 1.60937 37.4375 1.60937 35.9063V7.40623H45.336V34.7057L40.9774 31.0311C40.4781 30.609 39.8008 30.5239 39.2116 30.7964C38.6209 31.0705 38.2539 31.6454 38.2539 32.2976ZM48.3479 39.4522L45.3849 39.9815C45.1391 40.0256 44.9265 40.1815 44.8115 40.4036C44.6949 40.6257 44.6902 40.8888 44.7957 41.1156L46.078 43.8754C46.1583 44.0455 46.1662 44.2392 46.1016 44.4172C46.0354 44.5952 45.9047 44.7386 45.7345 44.8189C45.5613 44.8977 45.366 44.9071 45.1896 44.8409C45.01 44.7764 44.8682 44.6456 44.7879 44.4724L43.5057 41.7158C43.4001 41.4889 43.1953 41.3235 42.9512 41.2684C42.8929 41.2558 42.833 41.2495 42.7748 41.2495C42.5889 41.2495 42.4062 41.3141 42.2596 41.4354L39.8701 43.3256L39.9378 32.2629L48.3699 39.3719L48.3479 39.4522Z" fill="#021524"/>
</svg>
