<svg width="50" height="45" viewBox="0 0 50 45" fill="none" xmlns="http://www.w3.org/2000/svg">
<path d="M49.1745 13.2178H0.825472C0.369435 13.2178 0 12.8484 0 12.3924C0 11.9368 0.369435 11.5669 0.825472 11.5669H49.1745C49.6306 11.5669 50 11.9368 50 12.3924C50 12.8484 49.6306 13.2178 49.1745 13.2178Z" fill="#021524"/>
<path d="M19.7277 32.0909C19.5388 32.0909 19.3486 32.0259 19.1933 31.8937L13.8517 27.3454C13.6675 27.1883 13.5615 26.9589 13.5615 26.7166C13.5615 26.4747 13.6679 26.2453 13.8517 26.0883L19.1933 21.5399C19.5402 21.2441 20.0612 21.2861 20.3569 21.6329C20.6522 21.9802 20.6107 22.5012 20.2634 22.7965L15.6602 26.7166L20.2634 30.6366C20.6107 30.9324 20.6522 31.4534 20.3569 31.8002C20.1934 31.9923 19.9612 32.0909 19.7277 32.0909Z" fill="#021524"/>
<path d="M30.2722 32.0909C30.0386 32.0909 29.8065 31.9923 29.6434 31.8002C29.3477 31.4534 29.3896 30.9324 29.7364 30.6366L34.3396 26.7166L29.7364 22.7965C29.3896 22.5012 29.3477 21.9802 29.6434 21.6329C29.9387 21.2861 30.4601 21.2441 30.8065 21.5399L36.1481 26.0883C36.3324 26.2453 36.4383 26.4747 36.4383 26.7166C36.4383 26.9589 36.3324 27.1883 36.1481 27.3454L30.8065 31.8937C30.6513 32.0259 30.461 32.0909 30.2722 32.0909Z" fill="#021524"/>
<path d="M23.109 35.5023C23.0523 35.5023 22.9952 35.4963 22.9376 35.4843C22.4917 35.3903 22.2061 34.9523 22.3001 34.5064L25.6292 18.7003C25.7232 18.2544 26.1608 17.9688 26.6071 18.0628C27.053 18.1568 27.3386 18.5944 27.2447 19.0408L23.9156 34.8468C23.8336 35.2356 23.4909 35.5023 23.109 35.5023Z" fill="#021524"/>
<path d="M44.4575 44.1139H5.54245C2.48655 44.1139 0 41.6278 0 38.5715V5.54245C0 2.48655 2.48655 0 5.54245 0H44.4575C47.5135 0 50 2.48655 50 5.54245V38.5715C50 41.6278 47.5135 44.1139 44.4575 44.1139ZM5.54245 1.65094C3.39678 1.65094 1.65094 3.39678 1.65094 5.54245V38.5715C1.65094 40.7171 3.39678 42.463 5.54245 42.463H44.4575C46.6032 42.463 48.3491 40.7171 48.3491 38.5715V5.54245C48.3491 3.39678 46.6032 1.65094 44.4575 1.65094H5.54245Z" fill="#021524"/>
<path d="M14.1035 9.26807C12.6635 9.26807 11.4912 8.09573 11.4912 6.65576C11.4912 5.21533 12.6635 4.04346 14.1035 4.04346C15.5439 4.04346 16.7158 5.21533 16.7158 6.65576C16.7158 8.09573 15.5439 9.26807 14.1035 9.26807ZM14.1035 5.6944C13.5738 5.6944 13.1422 6.12556 13.1422 6.65576C13.1422 7.18596 13.5738 7.61712 14.1035 7.61712C14.6337 7.61712 15.0649 7.18596 15.0649 6.65576C15.0649 6.12556 14.6337 5.6944 14.1035 5.6944Z" fill="#021524"/>
<path d="M6.07813 9.24268C4.6377 9.24268 3.46582 8.0708 3.46582 6.63037C3.46582 5.18994 4.6377 4.01807 6.07813 4.01807C7.51856 4.01807 8.69043 5.18994 8.69043 6.63037C8.69043 8.0708 7.51856 9.24268 6.07813 9.24268ZM6.07813 5.66901C5.54839 5.66901 5.11676 6.10063 5.11676 6.63037C5.11676 7.16057 5.54839 7.59173 6.07813 7.59173C6.60833 7.59173 7.03949 7.16057 7.03949 6.63037C7.03949 6.10063 6.60833 5.66901 6.07813 5.66901Z" fill="#021524"/>
<path d="M22.1304 9.293C20.6904 9.293 19.5186 8.12112 19.5186 6.68069C19.5186 5.24072 20.6904 4.06885 22.1304 4.06885C23.5708 4.06885 24.7427 5.24072 24.7427 6.68069C24.7427 8.12112 23.5708 9.293 22.1304 9.293ZM22.1304 5.71933C21.6007 5.71933 21.1695 6.15049 21.1695 6.68069C21.1695 7.21089 21.6007 7.64205 22.1304 7.64205C22.6606 7.64205 23.0918 7.21089 23.0918 6.68069C23.0918 6.15049 22.6606 5.71933 22.1304 5.71933Z" fill="#021524"/>
</svg>
