<svg width="50" height="45" viewBox="0 0 50 45" fill="none" xmlns="http://www.w3.org/2000/svg">
<path d="M8.95713 3.50869C8.95713 3.88555 8.65156 4.19111 8.27471 4.19111H8.24434C7.86738 4.19111 7.56191 3.88555 7.56191 3.50869C7.56191 3.13184 7.86748 2.82627 8.24434 2.82627H8.27471C8.65156 2.82627 8.95713 3.13184 8.95713 3.50869ZM37.149 2.82627H18.4668C18.0898 2.82627 17.7844 3.13184 17.7844 3.50869C17.7844 3.88555 18.0899 4.19111 18.4668 4.19111H37.1491C37.5261 4.19111 37.8315 3.88555 37.8315 3.50869C37.8315 3.13184 37.526 2.82627 37.149 2.82627ZM10.4021 2.82627H10.3717C9.99473 2.82627 9.68926 3.13184 9.68926 3.50869C9.68926 3.88555 9.99482 4.19111 10.3717 4.19111H10.4021C10.779 4.19111 11.0845 3.88555 11.0845 3.50869C11.0845 3.13184 10.779 2.82627 10.4021 2.82627ZM12.5294 2.82627H12.499C12.1221 2.82627 11.8166 3.13184 11.8166 3.50869C11.8166 3.88555 12.1222 4.19111 12.499 4.19111H12.5294C12.9063 4.19111 13.2118 3.88555 13.2118 3.50869C13.2118 3.13184 12.9063 2.82627 12.5294 2.82627ZM49.9023 30.4354C49.9023 36.2625 45.1604 41.0032 39.3316 41.0032C36.4218 41.0032 33.7828 39.8209 31.8698 37.9116H28.7804V42.8433H32.4577C32.8347 42.8433 33.1401 43.1488 33.1401 43.5257C33.1401 43.9025 32.8346 44.2081 32.4577 44.2081H12.9382C12.5612 44.2081 12.2558 43.9025 12.2558 43.5257C12.2558 43.1488 12.5613 42.8433 12.9382 42.8433H16.6128V37.9116H0.682422C0.305469 37.9116 0 37.6061 0 37.2292V8.54268C0 8.16582 0.305566 7.86025 0.682422 7.86025H3.59443V6.33516V0.682422C3.59443 0.305566 3.9 0 4.27686 0H41.1191C41.4961 0 41.8016 0.305566 41.8016 0.682422V6.33516V7.86025H44.7136C45.0905 7.86025 45.396 8.16582 45.396 8.54268V21.7824C48.1191 23.6965 49.9023 26.8614 49.9023 30.4354ZM41.8017 9.225V20.1568C42.5819 20.3443 43.3286 20.6186 44.0313 20.9688V9.225H41.8017ZM39.3316 19.8647C39.7048 19.8647 40.0734 19.8845 40.4367 19.9224V7.01748H4.95938V28.8107H28.8886C29.6722 23.7506 34.0567 19.8647 39.3316 19.8647ZM4.95938 5.65273H40.4367V1.36475H4.95938V5.65273ZM1.36494 9.225V32.9882H29.0763C28.8726 32.1703 28.7638 31.3153 28.7638 30.4353C28.7638 30.3484 28.7649 30.2619 28.7671 30.1756H4.27695C3.9 30.1756 3.59453 29.87 3.59453 29.4932V9.225H1.36494ZM1.36494 36.5467H30.7146C30.2333 35.87 29.8301 35.1343 29.5171 34.3529H1.36494V36.5467ZM27.4155 37.9115H17.9778V42.8432H27.4155V37.9115ZM48.5374 30.4354C48.5374 25.3593 44.4077 21.2296 39.3316 21.2296C34.2571 21.2296 30.1286 25.3593 30.1286 30.4354C30.1286 35.5099 34.257 39.6384 39.3316 39.6384C44.4077 39.6384 48.5374 35.5099 48.5374 30.4354ZM36.2807 27.1292C36.0142 26.8627 35.582 26.8627 35.3155 27.1292L32.492 29.9527C32.364 30.0808 32.2921 30.2544 32.2921 30.4354C32.2922 30.6165 32.3642 30.7901 32.4923 30.9181L35.3158 33.739C35.4491 33.8721 35.6235 33.9386 35.7981 33.9386C35.9729 33.9386 36.1477 33.8719 36.281 33.7385C36.5474 33.4719 36.5471 33.0397 36.2805 32.7734L33.9399 30.4351L36.2808 28.0942C36.5472 27.8278 36.5472 27.3957 36.2807 27.1292ZM46.1743 29.9527L43.3507 27.1292C43.0842 26.8628 42.6521 26.8627 42.3855 27.1292C42.119 27.3957 42.119 27.8278 42.3855 28.0943L44.7265 30.4351L42.3858 32.7734C42.1192 33.0398 42.1189 33.4719 42.3854 33.7385C42.5187 33.8719 42.6934 33.9386 42.8682 33.9386C43.0428 33.9386 43.2173 33.8721 43.3505 33.739L46.1741 30.9181C46.3022 30.7901 46.3742 30.6165 46.3743 30.4354C46.3742 30.2544 46.3023 30.0808 46.1743 29.9527ZM40.9795 26.7341C40.6354 26.5808 40.2317 26.7358 40.0786 27.0801L37.3407 33.2329C37.1875 33.5772 37.3425 33.9806 37.6867 34.1339C37.7769 34.174 37.8711 34.193 37.9638 34.193C38.2251 34.193 38.4745 34.042 38.5876 33.7878L41.3255 27.635C41.4787 27.2906 41.3237 26.8873 40.9795 26.7341ZM31.2173 14.845L28.7997 16.075L31.2175 17.3061C31.4463 17.4226 31.5903 17.6575 31.5903 17.9144C31.5902 18.1711 31.4461 18.4061 31.2173 18.5225L28.7979 19.7533L31.2171 20.9833C31.446 21.0997 31.5902 21.3347 31.5903 21.5915C31.5903 21.8483 31.4462 22.0834 31.2173 22.1998L23.0061 26.3772C22.9089 26.4268 22.8027 26.4515 22.6966 26.4515C22.5904 26.4515 22.4844 26.4268 22.3871 26.3772L14.1759 22.1998C13.947 22.0833 13.8028 21.8482 13.8028 21.5914C13.8029 21.3346 13.9473 21.0995 14.1763 20.9832L16.5962 19.7538L14.1759 18.5225C13.9471 18.4061 13.8028 18.1711 13.8028 17.9143C13.8028 17.6575 13.9471 17.4225 14.1759 17.3061L16.5944 16.0756L14.1759 14.8451C13.9471 14.7287 13.8028 14.4937 13.8028 14.2369C13.8028 13.9802 13.9471 13.7451 14.1759 13.6287L22.3871 9.45127C22.5814 9.35225 22.8116 9.35225 23.006 9.45127L31.2172 13.6287C31.446 13.7451 31.5902 13.9802 31.5902 14.2369C31.5903 14.4936 31.4461 14.7286 31.2173 14.845ZM27.2927 20.519L23.0061 22.6998C22.9089 22.7493 22.8027 22.774 22.6966 22.774C22.5904 22.774 22.4844 22.7493 22.3871 22.6998L18.1019 20.5197L15.9913 21.592L22.6966 25.0033L29.4023 21.5918L27.2927 20.519ZM27.2951 16.8404L23.0062 19.0225C22.909 19.072 22.8028 19.0967 22.6967 19.0967C22.5905 19.0967 22.4845 19.072 22.3872 19.0225L18.0995 16.8411L15.9904 17.9142L22.6967 21.326L29.4034 17.914L27.2951 16.8404ZM29.4028 14.2368L22.6967 10.8251L15.9905 14.2368L18.3646 15.4446C18.3952 15.4573 18.4247 15.4726 18.4531 15.4896L22.6967 17.6485L26.9552 15.482C26.975 15.4707 26.9951 15.4604 27.0159 15.4512L29.4028 14.2368Z" fill="#021524"/>
</svg>
