<svg width="47" height="47" viewBox="0 0 47 47" fill="none" xmlns="http://www.w3.org/2000/svg">
<path d="M25.7812 4.6875H21.0938C20.6625 4.6875 20.3125 4.3375 20.3125 3.90625C20.3125 3.475 20.6625 3.125 21.0938 3.125H25.7812C26.2125 3.125 26.5625 3.475 26.5625 3.90625C26.5625 4.3375 26.2125 4.6875 25.7812 4.6875Z" fill="#021524"/>
<path d="M32.0312 46.875H14.8438C12.6891 46.875 10.9375 45.1219 10.9375 42.9688V16.4062C10.9375 15.975 11.2875 15.625 11.7188 15.625C12.15 15.625 12.5 15.975 12.5 16.4062V42.9688C12.5 44.2609 13.5516 45.3125 14.8438 45.3125H32.0312C33.3234 45.3125 34.375 44.2609 34.375 42.9688V16.4062C34.375 15.975 34.725 15.625 35.1562 15.625C35.5875 15.625 35.9375 15.975 35.9375 16.4062V42.9688C35.9375 45.1219 34.1859 46.875 32.0312 46.875Z" fill="#021524"/>
<path d="M35.1562 21.875C34.725 21.875 34.375 21.525 34.375 21.0938V3.90625C34.375 2.61406 33.3234 1.5625 32.0312 1.5625H14.8438C13.5516 1.5625 12.5 2.61406 12.5 3.90625V21.0938C12.5 21.525 12.15 21.875 11.7188 21.875C11.2875 21.875 10.9375 21.525 10.9375 21.0938V3.90625C10.9375 1.75312 12.6891 0 14.8438 0H32.0312C34.1859 0 35.9375 1.75312 35.9375 3.90625V21.0938C35.9375 21.525 35.5875 21.875 35.1562 21.875Z" fill="#021524"/>
<path d="M39.8438 7.89063C39.4125 7.89063 39.0625 7.61875 39.0625 7.1875V7.03125C39.0625 6.6 39.4125 6.25 39.8438 6.25C40.275 6.25 40.625 6.6 40.625 7.03125C40.625 7.4625 40.275 7.89063 39.8438 7.89063Z" fill="#021524"/>
<path d="M39.8438 11.0156C39.4125 11.0156 39.0625 10.7437 39.0625 10.3125V10.1562C39.0625 9.725 39.4125 9.375 39.8438 9.375C40.275 9.375 40.625 9.725 40.625 10.1562C40.625 10.5875 40.275 11.0156 39.8438 11.0156Z" fill="#021524"/>
<path d="M39.8438 14.1406C39.4125 14.1406 39.0625 13.8688 39.0625 13.4375V13.2812C39.0625 12.85 39.4125 12.5 39.8438 12.5C40.275 12.5 40.625 12.85 40.625 13.2812C40.625 13.7125 40.275 14.1406 39.8438 14.1406Z" fill="#021524"/>
<path d="M7.03125 34.2969C6.6 34.2969 6.25 34.025 6.25 33.5938V33.4375C6.25 33.0063 6.6 32.6562 7.03125 32.6562C7.4625 32.6562 7.8125 33.0063 7.8125 33.4375C7.8125 33.8687 7.4625 34.2969 7.03125 34.2969Z" fill="#021524"/>
<path d="M7.03125 37.4219C6.6 37.4219 6.25 37.15 6.25 36.7188V36.5625C6.25 36.1313 6.6 35.7812 7.03125 35.7812C7.4625 35.7812 7.8125 36.1313 7.8125 36.5625C7.8125 36.9937 7.4625 37.4219 7.03125 37.4219Z" fill="#021524"/>
<path d="M7.03125 40.5469C6.6 40.5469 6.25 40.275 6.25 39.8438V39.6875C6.25 39.2563 6.6 38.9062 7.03125 38.9062C7.4625 38.9062 7.8125 39.2563 7.8125 39.6875C7.8125 40.1187 7.4625 40.5469 7.03125 40.5469Z" fill="#021524"/>
<path d="M37.2516 40.625C37.1969 40.625 37.1406 40.6203 37.0859 40.6078C36.6641 40.5172 36.3969 40.1016 36.4875 39.6797L37.0031 37.2891C37.0656 36.9953 37.2922 36.7656 37.5828 36.6953C38.3203 36.5172 39.0391 36.2172 39.7188 35.8031C39.9703 35.6469 40.2937 35.6516 40.5453 35.8109L42.0922 36.8L43.05 35.8344L42.0609 34.3C41.8984 34.0484 41.8953 33.725 42.05 33.4703C42.4641 32.7906 42.7641 32.0719 42.9406 31.3344C43.0109 31.0438 43.2391 30.8187 43.5313 30.7531L45.3125 30.3578V29.0188L43.5328 28.6234C43.2406 28.5578 43.0125 28.3328 42.9422 28.0422C42.7656 27.3047 42.4641 26.5859 42.0516 25.9062C41.8953 25.6516 41.8984 25.3297 42.0609 25.0781L43.0516 23.5297L42.0953 22.5734L40.5469 23.5641C40.2953 23.725 39.9734 23.7281 39.7203 23.5719C39.0391 23.1578 38.3203 22.8578 37.5844 22.6797C37.2922 22.6094 37.0672 22.3781 37.0047 22.0859L36.6203 20.3125H35.9375C35.5063 20.3125 35.1562 19.9625 35.1562 19.5312C35.1562 19.1 35.5063 18.75 35.9375 18.75H37.25C37.6172 18.75 37.9359 19.0078 38.0125 19.3672L38.4297 21.2938C39.0016 21.4672 39.5625 21.7016 40.1031 21.9938L41.7812 20.9203C42.0906 20.7234 42.4938 20.7672 42.7547 21.0266L44.6 22.8703C44.8594 23.1297 44.9031 23.5344 44.7047 23.8438L43.6312 25.5219C43.9234 26.0641 44.1578 26.625 44.3312 27.1984L46.2609 27.6266C46.6203 27.7062 46.875 28.025 46.875 28.3906V30.9844C46.875 31.35 46.6203 31.6688 46.2625 31.7469L44.3328 32.175C44.1594 32.7484 43.925 33.3094 43.6328 33.85L44.7047 35.5125C44.9047 35.8203 44.8625 36.2266 44.6031 36.4859L42.7578 38.3453C42.4969 38.6063 42.0922 38.65 41.7828 38.4531L40.1047 37.3797C39.5625 37.6719 39.0031 37.9063 38.4313 38.0797L38.0141 40.0063C37.9344 40.375 37.6094 40.625 37.2516 40.625Z" fill="#021524"/>
<path d="M38.1108 33.7156C37.8608 33.7156 37.6139 33.5937 37.4623 33.3703C37.2217 33.0125 37.317 32.5266 37.6764 32.2859C38.5436 31.7016 39.0623 30.7297 39.0623 29.6875C39.0623 27.9641 37.6608 26.5625 35.9373 26.5625C35.7248 26.5625 35.5139 26.5844 35.3123 26.625C34.8936 26.7094 34.4764 26.4406 34.3889 26.0156C34.303 25.5922 34.5748 25.1797 34.9983 25.0937C35.3045 25.0328 35.6202 25 35.9373 25C38.5217 25 40.6248 27.1031 40.6248 29.6875C40.6248 31.2516 39.8483 32.7078 38.5452 33.5828C38.4123 33.6719 38.2608 33.7156 38.1108 33.7156Z" fill="#021524"/>
<path d="M10.9375 21.8748C8.35313 21.8748 6.25 19.7716 6.25 17.1873C6.25 15.617 7.03125 14.1591 8.34062 13.2841C8.69531 13.0466 9.18281 13.1404 9.42344 13.5013C9.6625 13.8591 9.56563 14.3451 9.20625 14.5841C8.33438 15.1685 7.8125 16.1404 7.8125 17.1873C7.8125 18.9107 9.21406 20.3123 10.9375 20.3123C11.1469 20.3123 11.3531 20.292 11.55 20.2513C11.9641 20.1654 12.3844 20.4388 12.4703 20.8638C12.5563 21.2873 12.2813 21.6982 11.8578 21.7826C11.5594 21.8435 11.2531 21.8748 10.9375 21.8748Z" fill="#021524"/>
<path d="M10.9375 28.1249H9.625C9.25781 28.1249 8.93906 27.8671 8.8625 27.5077L8.44531 25.5812C7.87344 25.4077 7.3125 25.1733 6.77188 24.8812L5.09375 25.9546C4.78281 26.1515 4.38125 26.1093 4.12031 25.8483L2.275 24.0046C2.01563 23.7452 1.97187 23.3405 2.17031 23.0312L3.24375 21.353C2.95156 20.8108 2.71719 20.2499 2.54375 19.6765L0.614063 19.2483C0.254688 19.1687 0 18.8499 0 18.4843V15.8905C0 15.5249 0.254687 15.2062 0.6125 15.128L2.54219 14.6999C2.71563 14.1265 2.95 13.5655 3.24219 13.0249L2.17188 11.3608C1.97188 11.053 2.01406 10.6468 2.27344 10.3874L4.11875 8.52804C4.37656 8.26554 4.78281 8.22179 5.09375 8.42022L6.77188 9.49366C7.31406 9.20147 7.87344 8.9671 8.44531 8.79366L8.8625 6.8671C8.95312 6.44366 9.37656 6.17491 9.79062 6.26866C10.2125 6.35929 10.4797 6.77491 10.3891 7.19679L9.87344 9.58741C9.81094 9.88116 9.58437 10.1108 9.29375 10.1812C8.55625 10.3593 7.8375 10.6593 7.15625 11.0733C6.90312 11.2296 6.58125 11.2249 6.32969 11.0655L4.78281 10.0765L3.82344 11.0421L4.8125 12.5765C4.97656 12.828 4.97969 13.1515 4.82344 13.4062C4.40937 14.0858 4.10937 14.8046 3.93281 15.5421C3.8625 15.8327 3.63437 16.0577 3.34219 16.1233L1.5625 16.5171V17.8562L3.34219 18.2515C3.63437 18.3171 3.8625 18.5421 3.93281 18.8327C4.10937 19.5702 4.41094 20.289 4.82344 20.9687C4.97969 21.2233 4.97656 21.5452 4.81406 21.7968L3.82344 23.3437L4.77969 24.2999L6.32813 23.3093C6.57969 23.1499 6.90312 23.1468 7.15469 23.3015C7.83594 23.7155 8.55469 24.0155 9.29063 24.1937C9.58281 24.264 9.80781 24.4952 9.87031 24.7874L10.2547 26.5624H10.9375C11.3687 26.5624 11.7188 26.9124 11.7188 27.3437C11.7188 27.7749 11.3687 28.1249 10.9375 28.1249Z" fill="#021524"/>
<path d="M22.6564 27.3439C22.5939 27.3439 22.5314 27.3361 22.4674 27.3205C22.047 27.2158 21.7939 26.7924 21.8986 26.3736L23.4611 20.1236C23.5642 19.7033 23.9814 19.4502 24.408 19.5549C24.8283 19.6595 25.0814 20.083 24.9767 20.5017L23.4142 26.7517C23.3267 27.108 23.008 27.3439 22.6564 27.3439Z" fill="#021524"/>
<path d="M27.3441 27.344C27.1441 27.344 26.9441 27.2675 26.791 27.1159C26.4863 26.8112 26.4863 26.3159 26.791 26.0112L29.3645 23.4378L26.7926 20.8659C26.4879 20.5612 26.4879 20.0659 26.7926 19.7612C27.0973 19.4565 27.5926 19.4565 27.8973 19.7612L31.0223 22.8862C31.327 23.1909 31.327 23.6862 31.0223 23.9909L27.8973 27.1159C27.7441 27.2675 27.5441 27.344 27.3441 27.344Z" fill="#021524"/>
<path d="M19.5316 27.344C19.3316 27.344 19.1316 27.2675 18.9785 27.1159L15.8535 23.9909C15.5488 23.6862 15.5488 23.1909 15.8535 22.8862L18.9785 19.7612C19.2832 19.4565 19.7785 19.4565 20.0832 19.7612C20.3879 20.0659 20.3879 20.5612 20.0832 20.8659L17.5113 23.4378L20.0832 26.0097C20.3879 26.3144 20.3879 26.8097 20.0832 27.1144C19.9316 27.2675 19.7316 27.344 19.5316 27.344Z" fill="#021524"/>
</svg>
