<svg width="132" height="132" viewBox="0 0 132 132" fill="none" xmlns="http://www.w3.org/2000/svg">
<circle cx="66" cy="66" r="66" fill="#1A1A1A"/>
<path d="M15 71.6168L59.805 120.988H78.8482L15 50.6318V71.6168Z" fill="white"/>
<path d="M15 32.985L94.8658 120.99H113.91L15 11.9999V32.985Z" fill="white"/>
<path d="M116.983 43.7921C116.987 43.6699 116.996 43.5478 116.999 43.4256H116.966C116.224 26.1937 101.992 12.4002 84.5803 12.4002H34.8906L47.6886 26.5025H84.5803C94.3344 26.5025 102.323 34.1603 102.874 43.7781C102.323 53.3959 94.3344 61.0536 84.5803 61.0536H79.8865L91.9165 74.3093C105.832 71.0757 116.333 58.8633 116.968 44.1305H116.999C116.997 44.0168 116.987 43.9058 116.983 43.7921Z" fill="white"/>
</svg>
