<svg width="80" height="80" viewBox="0 0 80 80" fill="none" xmlns="http://www.w3.org/2000/svg">
<g clip-path="url(#clip0_8998_188)">
<path d="M79.0873 37.4861C74.6906 32.135 58.8771 14.6709 40 14.6709C21.123 14.6709 5.30943 32.135 0.912746 37.4861C-0.304249 38.9414 -0.304249 41.0593 0.912746 42.5146C5.30943 47.8658 21.123 65.3297 40 65.3297C58.8771 65.3297 74.6906 47.8658 79.0873 42.5146C80.3043 41.0593 80.3043 38.9414 79.0873 37.4861ZM77.0276 40.8188C72.8189 45.9448 57.708 62.6634 40 62.6634C22.2921 62.6634 7.18118 45.9448 2.97244 40.8216C2.57379 40.3468 2.57379 39.6541 2.97244 39.1793C7.18118 34.0561 22.2921 17.3373 40 17.3373C57.708 17.3373 72.8189 34.0561 77.0276 39.1793C77.4263 39.6541 77.4263 40.3468 77.0276 40.8216V40.8188Z" fill="#2475FD"/>
<path d="M39.9998 20.0034C28.9558 20.0034 20.0029 28.9563 20.0029 40.0003C20.0029 51.0443 28.9558 59.9972 39.9998 59.9972C51.0439 59.9972 59.9967 51.0443 59.9967 40.0003C59.9842 28.9616 51.0386 20.0159 39.9998 20.0034ZM39.9998 57.3309C30.4284 57.3309 22.6692 49.5718 22.6692 40.0003C22.6692 30.4289 30.4284 22.6697 39.9998 22.6697C49.5713 22.6697 57.3305 30.4289 57.3305 40.0003C57.3194 49.5672 49.5667 57.3199 39.9998 57.3309Z" fill="#2475FD"/>
<path d="M40.0002 32.0015C35.5826 32.0015 32.0015 35.5826 32.0015 40.0002C32.0015 44.4178 35.5827 47.9989 40.0002 47.9989C44.4177 47.9989 47.9989 44.4177 47.9989 40.0002C47.9945 35.5844 44.4159 32.0058 40.0002 32.0015ZM40.0002 45.3327C37.0551 45.3327 34.6676 42.9453 34.6676 40.0002C34.6676 37.055 37.055 34.6676 40.0002 34.6676C42.9453 34.6676 45.3327 37.055 45.3327 40.0002C45.3327 42.9453 42.9452 45.3327 40.0002 45.3327Z" fill="#2475FD"/>
<path d="M24.0023 6.12668C24.1927 6.12655 24.3809 6.08562 24.5543 6.00665C26.2212 5.24937 27.9415 4.6158 29.7015 4.11095C30.4095 3.90853 30.8192 3.17047 30.6167 2.46254C30.4143 1.75461 29.6763 1.34491 28.9683 1.54732C27.0816 2.08837 25.2373 2.76787 23.4505 3.5803C22.8798 3.84036 22.5675 4.46301 22.7003 5.07591C22.8331 5.68895 23.3752 6.12629 24.0023 6.12668Z" fill="#2475FD"/>
<path d="M13.3373 13.3377C13.6798 13.3378 14.0092 13.2059 14.2571 12.9697C15.8499 11.4526 17.5727 10.0782 19.4057 8.86227C19.8051 8.60011 20.0338 8.14434 20.0051 7.66752C19.9764 7.1907 19.6946 6.7656 19.2665 6.55331C18.8383 6.34103 18.3295 6.37419 17.9326 6.63991C15.9691 7.94219 14.1237 9.41438 12.4175 11.0392C12.0228 11.4152 11.8969 11.9937 12.0994 12.4998C12.3019 13.006 12.7922 13.3378 13.3373 13.3377Z" fill="#2475FD"/>
<path d="M5.49059 22.5031C5.68866 22.6134 5.91174 22.6708 6.1385 22.6697C6.6248 22.6704 7.0728 22.4062 7.30759 21.9805C8.21833 20.3326 9.25173 18.7555 10.3991 17.2625C10.7098 16.8869 10.7908 16.3717 10.6102 15.9188C10.4296 15.4659 10.0162 15.1478 9.53219 15.0893C9.04826 15.0307 8.57078 15.2409 8.28729 15.6374C7.05648 17.2364 5.94859 18.9262 4.9731 20.6927C4.61735 21.3356 4.84873 22.1453 5.49059 22.5031Z" fill="#2475FD"/>
<path d="M4.16001 25.4185C3.82822 25.2964 3.46142 25.311 3.14043 25.4592C2.81943 25.6074 2.57043 25.8772 2.44829 26.209C1.78695 28.0074 1.25722 29.8515 0.863185 31.7268C0.790142 32.073 0.857789 32.434 1.05099 32.7302C1.24433 33.0265 1.54742 33.2339 1.89369 33.3066C1.9845 33.3251 2.07689 33.3345 2.16967 33.3346C2.79929 33.3337 3.34245 32.8922 3.47208 32.276C3.84046 30.527 4.33465 28.8068 4.95059 27.1288C5.2042 26.4382 4.8503 25.6728 4.16001 25.4185Z" fill="#2475FD"/>
<path d="M34.8502 3.02479C38.2676 2.55823 41.7326 2.55823 45.15 3.02479C45.2106 3.03334 45.2716 3.03729 45.3327 3.03677C46.0311 3.03334 46.6085 2.49138 46.656 1.7945C46.7035 1.09763 46.2054 0.482222 45.5139 0.383778C41.8541 -0.116207 38.1434 -0.116207 34.4836 0.383778C34.0073 0.443924 33.6001 0.755444 33.4175 1.19949C33.235 1.64355 33.3053 2.1513 33.6014 2.52915C33.8977 2.90687 34.3741 3.09625 34.8488 3.02479H34.8502Z" fill="#2475FD"/>
<path d="M50.2985 4.11116C52.0584 4.61549 53.7788 5.24866 55.4457 6.00555C55.8811 6.2156 56.3961 6.17335 56.7916 5.89539C57.1871 5.61743 57.4011 5.14706 57.3508 4.66629C57.3005 4.18552 56.994 3.7695 56.5495 3.57932C54.7628 2.7669 52.9186 2.08726 51.0317 1.54635C50.3237 1.34393 49.5857 1.75363 49.3833 2.46156C49.1808 3.16949 49.5905 3.90756 50.2985 4.10997V4.11116Z" fill="#2475FD"/>
<path d="M60.5941 8.86225C62.427 10.0782 64.1498 11.4526 65.7427 12.9697C66.2757 13.4777 67.1197 13.4574 67.6277 12.9244C68.1358 12.3914 68.1155 11.5474 67.5825 11.0393C65.8763 9.41449 64.0308 7.9423 62.0674 6.64002C61.6707 6.34719 61.1448 6.29718 60.7001 6.50999C60.2554 6.7228 59.9644 7.16383 59.9436 7.65644C59.9228 8.14906 60.1756 8.61298 60.601 8.86238L60.5941 8.86225Z" fill="#2475FD"/>
<path d="M71.7179 15.6375C71.4344 15.2409 70.9571 15.0306 70.473 15.0893C69.9891 15.1479 69.5757 15.4661 69.3952 15.9188C69.2146 16.3716 69.2955 16.887 69.6063 17.2626C70.7536 18.7554 71.787 20.3326 72.6978 21.9805C72.9316 22.4046 73.3773 22.6684 73.8616 22.6698C74.3329 22.669 74.7686 22.4194 75.0079 22.0136C75.2472 21.6075 75.2543 21.1054 75.0267 20.6927C74.0529 18.9265 72.9469 17.2366 71.7179 15.6375Z" fill="#2475FD"/>
<path d="M76.5276 32.2758C76.6574 32.892 77.2004 33.3333 77.83 33.3343C77.9227 33.3342 78.0152 33.3249 78.106 33.3063C78.4523 33.2337 78.7554 33.0262 78.9487 32.73C79.142 32.4337 79.2095 32.0727 79.1365 31.7266C78.7425 29.8513 78.2127 28.0072 77.5514 26.2087C77.2904 25.528 76.5309 25.1832 75.8466 25.4347C75.1624 25.6862 74.8071 26.4409 75.0491 27.1285C75.6652 28.8066 76.1592 30.5268 76.5276 32.2758Z" fill="#2475FD"/>
<path d="M28.9685 78.4526C29.6764 78.6551 30.4145 78.2453 30.6169 77.5374C30.8193 76.8295 30.4096 76.0914 29.7017 75.889C27.9418 75.3847 26.2214 74.7515 24.5544 73.9946C23.8883 73.7094 23.1163 74.0086 22.8163 74.6681C22.5162 75.3276 22.798 76.106 23.4506 76.4208C25.2375 77.233 27.0817 77.9121 28.9685 78.4526Z" fill="#2475FD"/>
<path d="M18.6698 73.5819C19.2576 73.5817 19.776 73.1965 19.9458 72.6338C20.1156 72.071 19.8967 71.4635 19.4071 71.1381C17.5742 69.9222 15.8514 68.5478 14.2586 67.0307C13.7255 66.5227 12.8815 66.543 12.3735 67.076C11.8655 67.609 11.8858 68.453 12.4188 68.9611C14.125 70.5859 15.9704 72.0581 17.9339 73.3604C18.152 73.5054 18.4081 73.5824 18.6698 73.5819Z" fill="#2475FD"/>
<path d="M8.28233 64.3633C8.56582 64.7598 9.04317 64.9701 9.52723 64.9114C10.0112 64.8528 10.4245 64.5346 10.6052 64.0819C10.7858 63.629 10.7049 63.1138 10.3941 62.7381C9.24677 61.2453 8.21337 59.6681 7.30263 58.0202C6.94136 57.3873 6.13894 57.1617 5.50089 57.5138C4.86285 57.8658 4.62569 58.665 4.9684 59.308C5.94363 61.0743 7.05152 62.7643 8.28233 64.3633Z" fill="#2475FD"/>
<path d="M3.47237 47.7245C3.37827 47.2544 3.03898 46.8709 2.58387 46.7203C2.12864 46.5697 1.6276 46.6752 1.27173 46.9966C0.915854 47.3179 0.760028 47.8056 0.863473 48.2738C1.25751 50.1491 1.78724 51.9932 2.44858 53.7917C2.70956 54.4724 3.46908 54.8172 4.15332 54.5657C4.83756 54.3142 5.1929 53.5595 4.95087 52.8719C4.33481 51.1937 3.84075 49.4734 3.47237 47.7245Z" fill="#2475FD"/>
<path d="M40.0002 79.994C41.845 79.994 43.6876 79.8679 45.5153 79.6167C45.9916 79.5566 46.3988 79.245 46.5813 78.8011C46.7639 78.3572 46.6936 77.8493 46.3975 77.4715C46.1013 77.0936 45.6248 76.9044 45.1501 76.9758C41.7327 77.4424 38.2677 77.4424 34.8503 76.9758C34.3756 76.9044 33.8992 77.0937 33.6029 77.4715C33.3066 77.8492 33.2365 78.3571 33.419 78.8011C33.6016 79.245 34.0088 79.5567 34.4851 79.6167C36.3126 79.8679 38.1554 79.994 40.0002 79.994Z" fill="#2475FD"/>
<path d="M50.6649 78.5049C50.7889 78.5045 50.9123 78.487 51.0316 78.4529C52.9183 77.9119 54.7626 77.2324 56.5494 76.42C56.9939 76.2297 57.3004 75.8138 57.3507 75.333C57.401 74.8522 57.187 74.3819 56.7915 74.1039C56.396 73.8258 55.881 73.7837 55.4456 73.9937C53.7787 74.751 52.0584 75.3846 50.2984 75.8895C49.658 76.0712 49.2497 76.6977 49.3421 77.357C49.4345 78.0163 49.9992 78.5062 50.6649 78.5049Z" fill="#2475FD"/>
<path d="M61.3301 73.5816C61.5919 73.5823 61.848 73.5053 62.0659 73.3604C64.0294 72.0581 65.8748 70.5859 67.581 68.9611C68.114 68.453 68.1343 67.609 67.6263 67.076C67.1183 66.543 66.2743 66.5227 65.7413 67.0307C64.1485 68.5478 62.4257 69.9222 60.5927 71.1381C60.103 71.4634 59.8842 72.0709 60.054 72.6338C60.2238 73.1967 60.7423 73.5813 61.3301 73.5816Z" fill="#2475FD"/>
<path d="M74.5095 57.4973C74.2 57.3263 73.8351 57.2852 73.4953 57.3833C73.1555 57.4813 72.8686 57.7103 72.6978 58.0199C71.787 59.6678 70.7536 61.2449 69.6063 62.7378C69.2955 63.1135 69.2146 63.6287 69.3952 64.0816C69.5757 64.5344 69.9891 64.8525 70.473 64.9111C70.957 64.9697 71.4344 64.7595 71.7179 64.363C72.9487 62.764 74.0566 61.0742 75.0321 59.3077C75.3872 58.6635 75.1533 57.8531 74.5095 57.4973Z" fill="#2475FD"/>
<path d="M75.8399 54.5817C76.1717 54.7038 76.5385 54.6892 76.8595 54.541C77.1805 54.3927 77.4295 54.123 77.5516 53.7912C78.213 51.9928 78.7427 50.1486 79.1367 48.2733C79.2402 47.8052 79.0844 47.3175 78.7285 46.9961C78.3726 46.6747 77.8716 46.5693 77.4163 46.7198C76.9611 46.8704 76.6218 47.2539 76.5278 47.724C76.1595 49.4731 75.6653 51.1932 75.0493 52.8713C74.7957 53.5619 75.1496 54.3274 75.8399 54.5817Z" fill="#2475FD"/>
<path d="M1.33942 10.6713C2.07565 10.6713 2.6725 10.0745 2.6725 9.33827V2.67263H9.33813C10.0744 2.67263 10.6712 2.07578 10.6712 1.33955C10.6712 0.603329 10.0745 0.00634766 9.33826 0.00634766H2.67263C1.20005 0.00634766 0.00634766 1.20005 0.00634766 2.67263V9.33827C0.00634766 10.0745 0.603198 10.6713 1.33942 10.6713Z" fill="#2475FD"/>
<path d="M70.6618 2.67263H77.3275V9.33827C77.3275 10.0745 77.9243 10.6713 78.6605 10.6713C79.3968 10.6713 79.9936 10.0745 79.9936 9.33827V2.67263C79.9936 1.20005 78.7999 0.00634766 77.3273 0.00634766H70.6617C69.9255 0.00634766 69.3286 0.603198 69.3286 1.33942C69.3286 2.07565 69.9256 2.67263 70.6618 2.67263Z" fill="#2475FD"/>
<path d="M0.00634766 70.6621V77.3277C0.00634766 78.8003 1.20005 79.994 2.67263 79.994H9.33827C10.0745 79.994 10.6713 79.3971 10.6713 78.6609C10.6713 77.9247 10.0745 77.3278 9.33827 77.3278H2.67263V70.6622C2.67263 69.926 2.07578 69.3291 1.33955 69.3291C0.603329 69.3291 0.00634766 69.9258 0.00634766 70.6621Z" fill="#2475FD"/>
<path d="M78.6609 69.3291C77.9247 69.3291 77.3278 69.926 77.3278 70.6622V77.3278H70.6622C69.926 77.3278 69.3291 77.9247 69.3291 78.6609C69.3291 79.3971 69.926 79.994 70.6622 79.994H77.3278C78.8004 79.994 79.9941 78.8003 79.9941 77.3277V70.662C79.994 69.926 79.3971 69.3291 78.6609 69.3291Z" fill="#2475FD"/>
</g>
<defs>
<clipPath id="clip0_8998_188">
<rect width="80" height="80" fill="white"/>
</clipPath>
</defs>
</svg>
