<svg width="80" height="80" viewBox="0 0 80 80" fill="none" xmlns="http://www.w3.org/2000/svg">
<path d="M65.4126 28.936C65.572 29.0422 65.7532 29.0938 65.9313 29.0938C66.2157 29.0938 66.4954 28.9641 66.6798 28.7219L76.5532 15.6782C77.4767 14.4594 77.8298 13.0188 77.5751 11.511C77.3204 10.0032 76.5142 8.75785 75.2439 7.91098L75.2095 7.88754C73.9376 7.0391 72.4782 6.77348 70.9892 7.11723C69.5001 7.46098 68.3048 8.34066 67.5345 9.66098L59.286 23.7891C59.036 24.2172 59.1626 24.7672 59.5751 25.0422L60.0501 25.3594L56.0688 31.3297C55.7813 31.1 55.4829 30.8813 55.1751 30.6766C50.7423 27.7204 45.1095 27.9344 40.9626 30.7766C40.0798 30.7141 39.186 30.6813 38.3001 30.6813C31.3017 30.6813 24.5642 32.5641 18.272 36.2797C12.2157 39.8563 6.9126 44.9172 2.50947 51.325C2.28916 51.6454 2.28916 52.0672 2.50947 52.386C6.9126 58.7938 12.2157 63.8563 18.272 67.4313C24.5626 71.1453 31.3017 73.0297 38.3001 73.0297C45.2985 73.0297 52.0376 71.1469 58.3282 67.4313C64.3845 63.8547 69.6876 58.7938 74.0907 52.386C74.311 52.0657 74.311 51.6438 74.0907 51.325C70.3751 45.9172 65.9939 41.45 61.0564 38.0282C61.4048 37.6844 61.7095 37.3235 61.9563 36.9532L63.7345 34.2875C63.8563 34.1047 63.9095 33.886 63.886 33.6672L63.5657 30.6813L64.9407 28.6203L65.4126 28.936ZM69.1517 10.6079C69.6704 9.72035 70.4079 9.1766 71.4095 8.94535C72.411 8.7141 73.3126 8.87816 74.1657 9.44848L74.2001 9.47191C75.0548 10.0422 75.5532 10.811 75.7251 11.825C75.897 12.8391 75.6782 13.7297 75.0579 14.5485L65.7173 26.8875L61.3485 23.9735L69.1517 10.6079ZM54.1329 32.2344C54.4407 32.4391 54.736 32.6625 55.0204 32.8969L50.7345 39.3235C50.5735 39.5657 50.5329 39.8688 50.6267 40.1438C50.7204 40.4188 50.936 40.636 51.211 40.7297C51.9595 40.986 52.7579 41.1016 53.5751 41.1016C55.3704 41.1016 57.247 40.5391 58.8267 39.6641C59.2095 42.2922 58.6173 44.986 57.1267 47.2188C53.8204 52.175 47.0985 53.5188 42.1407 50.2125C37.1845 46.9063 35.8407 40.1844 39.147 35.2266C42.4548 30.2719 49.1767 28.9297 54.1329 32.2344ZM60.7688 40.1235C61.9032 40.9469 63.0048 41.8313 64.0751 42.7704L62.6892 44.5625C62.2829 45.0891 61.6751 45.311 61.0251 45.1719C60.7657 45.1172 60.5001 45.0672 60.2282 45.0375C60.7298 43.4547 60.9142 41.786 60.7688 40.1235ZM31.0517 41.8735C31.0517 44.0032 29.3204 45.7344 27.1907 45.7344C25.061 45.7344 23.3298 44.0032 23.3298 41.8735C23.3298 39.7453 25.0626 38.0125 27.1907 38.0125C29.3188 38.0125 31.0517 39.7453 31.0517 41.8735ZM25.7345 47.4219C26.2001 47.5438 26.6876 47.6094 27.1907 47.6094C30.3532 47.6094 32.9267 45.036 32.9267 41.8735C32.9267 41.1563 32.7923 40.4688 32.5517 39.8344C33.5548 39.3532 34.6063 39 35.697 38.7844C35.197 41.3563 35.5126 44.0172 36.5657 46.386C34.2407 47.1282 32.5657 49.3172 32.5657 51.8532C32.5657 55.0157 35.1392 57.5891 38.3017 57.5891C41.0126 57.5891 43.2876 55.6985 43.8845 53.1672C45.2626 53.6578 46.697 53.9 48.122 53.9C49.2751 53.9 50.4235 53.7438 51.5313 53.436C50.7407 60.0219 45.0688 65.1766 38.3032 65.1766C30.9563 65.1766 24.9798 59.2 24.9798 51.8532C24.9751 50.3282 25.2329 48.8407 25.7345 47.4219ZM41.1017 51.775C41.436 51.9969 41.7767 52.2 42.122 52.386C41.8626 54.2641 40.247 55.7157 38.2985 55.7157C36.1688 55.7157 34.4376 53.9844 34.4376 51.8547C34.4376 50.025 35.7345 48.4625 37.4751 48.0829C38.3892 49.5094 39.6032 50.775 41.1017 51.775ZM71.486 50.8985L70.522 50.2078C69.622 49.5641 68.4407 49.536 67.511 50.1391L67.2251 50.325C66.6532 50.6969 65.9517 50.4438 65.5267 50.1125L62.4767 47.7485C62.0673 47.4313 61.4782 47.5063 61.161 47.9141C60.8438 48.3235 60.9188 48.9125 61.3282 49.2297L64.3782 51.5938C65.5782 52.525 67.097 52.6438 68.247 51.8969L68.5329 51.711C68.8188 51.525 69.1548 51.5328 69.4313 51.7313L71.297 53.0672C69.4392 55.5594 67.4267 57.8188 65.286 59.8313L64.286 58.6297C63.4235 57.5922 61.9173 57.3625 60.7845 58.0938C60.4438 58.3125 59.9938 58.2422 59.736 57.9282L56.6954 54.211C56.3673 53.8094 55.7767 53.7516 55.3767 54.0797C54.9767 54.4078 54.9173 54.9985 55.2438 55.3985L58.2845 59.1157C59.1454 60.1688 60.6563 60.4063 61.8001 59.6688C62.1438 59.4469 62.5829 59.5141 62.8438 59.8282L63.8923 61.0891C56.4095 67.5844 47.5079 71.1547 38.3001 71.1547C29.8923 71.1547 21.7407 68.1782 14.6907 62.7157C14.8298 62.636 14.9751 62.6063 15.1501 62.6219L16.2985 62.7313C17.0204 62.8 17.7063 62.6313 18.3985 62.2141C19.3204 61.6594 19.8048 60.85 20.2329 60.1375C20.6017 59.5235 20.9204 58.9922 21.4751 58.6125C21.9017 58.3188 22.011 57.736 21.7173 57.3094C21.4235 56.8829 20.8407 56.7735 20.4142 57.0672C19.5235 57.6797 19.047 58.4735 18.6267 59.1735C18.2657 59.775 17.9532 60.2953 17.4329 60.6094C17.0829 60.8204 16.7985 60.8969 16.4767 60.8657L15.3282 60.7563C14.6235 60.6891 13.9595 60.8875 13.4063 61.3297L13.1907 61.5016C10.9782 59.6328 8.88603 57.5125 6.94072 55.1547L7.88447 54.5516C8.12666 54.3969 8.38291 54.3782 8.64385 54.4985L9.66104 54.9625C10.536 55.361 11.5267 55.2688 12.3126 54.7141L15.7813 52.2625C16.2048 51.9641 16.3048 51.3782 16.0063 50.9563C15.7079 50.5344 15.122 50.4328 14.7001 50.7313L11.2313 53.1828C10.986 53.3563 10.7126 53.3813 10.4407 53.2563L9.42354 52.7922C8.58291 52.4078 7.65322 52.4735 6.87354 52.9735L5.76885 53.6813C5.3126 53.086 4.86416 52.4782 4.42666 51.8563C6.22822 49.2985 8.18916 46.9688 10.2813 44.8829L10.8548 44.9563C11.0751 44.9844 11.2298 45.0703 11.3688 45.2422L14.0282 48.4953C14.5532 49.1375 15.2626 49.4938 15.9829 49.4938C16.1173 49.4938 16.2501 49.4813 16.3845 49.4563C16.6235 49.411 16.8392 49.3469 17.047 49.2844C17.6048 49.1172 17.8673 49.0516 18.2688 49.2703C18.7235 49.5172 19.2938 49.3485 19.5407 48.8938C19.7876 48.4391 19.6188 47.8703 19.1642 47.6219C18.0595 47.0219 17.1626 47.2922 16.5063 47.4891C16.3392 47.5391 16.1798 47.5875 16.0392 47.6141C15.7954 47.6594 15.5657 47.4157 15.4798 47.3094L12.8204 44.0578C12.5642 43.7453 12.2548 43.5047 11.9048 43.3375C19.5501 36.3891 28.761 32.5578 38.3017 32.5578C38.4954 32.5578 38.6892 32.561 38.8845 32.5641C38.4173 33.0641 37.9829 33.6047 37.5923 34.1922C37.0376 35.0235 36.5985 35.8985 36.2626 36.7969C34.6345 37.0141 33.072 37.4891 31.6032 38.2125C30.5501 36.9469 28.9642 36.1407 27.1938 36.1407C24.0313 36.1407 21.4579 38.7141 21.4579 41.8766C21.4579 43.8672 22.4767 45.6219 24.0204 46.6516C23.4126 48.3157 23.1048 50.0625 23.1048 51.8579C23.1048 60.2375 29.922 67.0563 38.3032 67.0563C42.3157 67.0563 46.1017 65.5063 48.9626 62.6922C51.6751 60.0235 53.2642 56.5032 53.4767 52.7266C55.5267 51.7797 57.3501 50.2766 58.6923 48.2641C58.986 47.8235 59.2501 47.3672 59.4845 46.8985C59.8095 46.8578 60.1876 46.911 60.6407 47.0079C60.9017 47.0641 61.161 47.0907 61.4157 47.0907C62.4923 47.0907 63.4892 46.6032 64.1798 45.7125L65.4704 44.0422C67.6189 46.0875 69.6313 48.3766 71.486 50.8985ZM61.6626 30.5422L61.9829 33.5282L60.3938 35.911C59.2548 37.6188 55.9407 39.4641 53.0626 39.2125L61.6095 26.3985L63.3782 27.5782L61.8157 29.9219C61.6923 30.1047 61.6392 30.325 61.6626 30.5422ZM71.1517 12.3172L71.4845 11.8172C71.772 11.386 72.3532 11.2704 72.7845 11.5579C73.2157 11.8454 73.3314 12.4266 73.0438 12.8579L72.711 13.3579C72.5298 13.6282 72.2329 13.775 71.9298 13.775C71.7517 13.775 71.5704 13.7235 71.411 13.6172C70.9813 13.3297 70.8642 12.7485 71.1517 12.3172Z" fill="#2475FD"/>
</svg>
