<svg width="80" height="80" viewBox="0 0 80 80" fill="none" xmlns="http://www.w3.org/2000/svg">
<path d="M11.3786 22.9771C11.646 22.9771 11.9078 22.9019 12.1327 22.7605C20.3116 17.5337 29.8752 14.752 39.6499 14.7567C49.2485 15.0451 58.6163 17.7003 66.8812 22.4753C67.1987 22.6621 67.5791 22.7181 67.9389 22.631C68.2986 22.5439 68.6082 22.3208 68.7995 22.0108C68.9908 21.7008 69.0481 21.3293 68.9589 20.978C68.8697 20.6267 68.6413 20.3244 68.3238 20.1376C45.8695 7.90406 27.0479 10.6037 10.6218 20.4637C10.3737 20.6266 10.1851 20.8626 10.0836 21.1372C9.98204 21.4119 9.97277 21.711 10.0571 21.9912C10.1415 22.2713 10.3151 22.5179 10.5527 22.6952C10.7903 22.8725 11.0796 22.9712 11.3786 22.9771Z" fill="#2475FD"/>
<path d="M56.1806 62.0501C50.961 63.9101 45.5023 64.9289 39.9911 65.0717C34.4865 65.0791 29.0195 64.1211 23.8164 62.2373C23.471 62.1189 23.0951 62.1474 22.7696 62.3168C22.4441 62.4861 22.1951 62.7828 22.0763 63.1427C21.9574 63.5027 21.9781 63.8973 22.1341 64.2413C22.29 64.5854 22.5686 64.8516 22.9099 64.9824C28.4044 66.9727 34.1779 67.9849 39.9911 67.977C45.7996 67.8303 51.5533 66.7613 57.0562 64.8064C57.4038 64.6839 57.6908 64.4218 57.8545 64.0777C58.0181 63.7336 58.0449 63.3355 57.929 62.9707C57.8132 62.6059 57.5641 62.3042 57.2363 62.1316C56.9086 61.959 56.5289 61.9297 56.1806 62.0501Z" fill="#2475FD"/>
<path d="M78.7455 39.1704C64.9788 19.5437 42.5157 18.9771 40 18.9771C16.1059 18.9771 2.70382 37.1039 1.25453 39.1704C1.08891 39.4064 1 39.6882 1 39.9771C1 40.2659 1.08891 40.5477 1.25453 40.7837C2.70382 42.8502 16.1059 60.9771 40 60.9771C42.5157 60.9771 64.9788 60.4104 78.7455 40.7837C78.9111 40.5477 79 40.2659 79 39.9771C79 39.6882 78.9111 39.4064 78.7455 39.1704ZM13.4311 49.0947V47.0823C13.4316 46.6833 13.5895 46.3007 13.8703 46.0185C14.151 45.7363 14.5317 45.5776 14.9287 45.5771C15.2947 45.5719 15.6439 45.4221 15.9009 45.1601C16.1579 44.8981 16.302 44.545 16.302 44.1771C16.302 43.8092 16.1579 43.456 15.9009 43.194C15.6439 42.9321 15.2947 42.7823 14.9287 42.7771C13.8332 42.7799 12.7806 43.2051 11.9879 43.965C11.1951 44.7249 10.7226 45.7615 10.6677 46.8612C8.26414 44.7911 6.07221 42.485 4.12456 39.9771C6.8358 36.5005 10.0015 33.4077 13.5358 30.7824V34.2649C13.535 35.037 13.2294 35.7772 12.6863 36.3232C12.1431 36.8691 11.4067 37.1762 10.6386 37.177C10.2692 37.177 9.91488 37.3245 9.65367 37.5871C9.39246 37.8496 9.24571 38.2057 9.24571 38.577C9.24571 38.9483 9.39246 39.3044 9.65367 39.567C9.91488 39.8296 10.2692 39.9771 10.6386 39.9771C12.1453 39.9754 13.5898 39.3731 14.6553 38.3022C15.7207 37.2314 16.3199 35.7794 16.3215 34.2649V28.8493C19.5097 26.7874 22.9438 25.1375 26.5424 23.9387C24.2139 25.9048 22.3417 28.3594 21.0573 31.13C19.7728 33.9007 19.1072 36.9204 19.1072 39.9771C19.1072 43.0337 19.7728 46.0534 21.0573 48.8241C22.3417 51.5947 24.2139 54.0493 26.5424 56.0154C21.8288 54.4355 17.4009 52.0983 13.4311 49.0947ZM65.0713 50.3153V48.3771C65.072 47.6347 65.3657 46.9229 65.888 46.398C66.4103 45.8731 67.1184 45.5778 67.857 45.5771C68.223 45.5719 68.5722 45.4221 68.8292 45.1601C69.0862 44.8981 69.2303 44.545 69.2303 44.1771C69.2303 43.8092 69.0862 43.456 68.8292 43.194C68.5722 42.9321 68.223 42.7823 67.857 42.7771C66.3799 42.7788 64.9638 43.3693 63.9193 44.4192C62.8748 45.469 62.2873 46.8924 62.2856 48.3771V52.0274C59.5535 53.563 56.6764 54.8222 53.6967 55.7864C56.6986 53.196 58.8956 49.7922 60.0257 45.9811C60.1258 45.6275 60.0836 45.2485 59.9082 44.9259C59.7327 44.6033 59.438 44.363 59.0878 44.2569C58.7376 44.1508 58.3599 44.1875 58.0363 44.3589C57.7127 44.5303 57.4692 44.8228 57.3583 45.1732C51.3342 65.0251 22.0711 60.7896 21.8931 39.9765C22.7214 16.6441 55.5796 15.5072 58.0548 38.675C58.0861 39.0412 58.2594 39.3804 58.5373 39.6192C58.8151 39.8581 59.1753 39.9776 59.5401 39.9519C59.9048 39.9262 60.2449 39.7574 60.4869 39.4819C60.729 39.2064 60.8535 38.8463 60.8337 38.4793C60.6365 35.7375 59.9033 33.0617 58.676 30.6051C57.4487 28.1486 55.7514 25.9594 53.6813 24.1629C58.2497 25.6302 62.5625 27.8045 66.4642 30.6075V32.977C66.4637 33.3482 66.3168 33.704 66.0557 33.9664C65.7946 34.2289 65.4406 34.3765 65.0714 34.377C64.7052 34.382 64.3557 34.5316 64.0985 34.7936C63.8413 35.0557 63.6971 35.4089 63.6971 35.777C63.6971 36.1451 63.8413 36.4984 64.0985 36.7604C64.3557 37.0224 64.7052 37.1721 65.0714 37.177C65.6341 37.1756 66.1907 37.0603 66.7082 36.838C67.2256 36.6157 67.6932 36.291 68.0832 35.8832C68.4731 35.4754 68.7773 34.9929 68.9778 34.4644C69.1782 33.9359 69.2707 33.3722 69.2498 32.807C71.7271 34.9354 73.9545 37.341 75.889 39.9771C72.9143 44.0342 69.2525 47.5336 65.0713 50.3153Z" fill="#2475FD"/>
<path d="M47.0588 27.9771C45.8145 27.98 44.6179 28.4554 43.7108 29.3071C42.2596 28.9306 38.8144 27.6849 38.5882 30.0946C38.5882 30.469 38.7369 30.8281 39.0017 31.0929C39.2665 31.3577 39.6255 31.5065 40 31.5065C40.7611 31.5079 41.5185 31.6117 42.2519 31.8151C42.057 32.6305 42.0743 33.4822 42.3022 34.2889C42.5301 35.0956 42.961 35.8305 43.5538 36.4233C44.1465 37.016 44.8814 37.4469 45.6881 37.6748C46.4949 37.9028 47.3466 37.92 48.1619 37.725C48.5628 39.1683 48.5732 40.6922 48.1921 42.1408C47.8111 43.5894 47.0521 44.9109 45.993 45.97C44.9338 47.0292 43.6123 47.7881 42.1637 48.1692C40.7151 48.5503 39.1913 48.5398 37.748 48.139C37.943 47.3236 37.9257 46.4719 37.6978 45.6652C37.4699 44.8585 37.039 44.1236 36.4462 43.5308C35.8534 42.9381 35.1186 42.5071 34.3119 42.2792C33.5051 42.0513 32.6534 42.034 31.8381 42.229C31.6347 41.4956 31.5308 40.7382 31.5294 39.9771C31.523 37.7641 32.3923 35.6383 33.9476 34.064C34.2017 33.7953 34.3403 33.4378 34.3336 33.0681C34.327 32.6985 34.1757 32.3461 33.9122 32.0868C33.6487 31.8274 33.294 31.6817 32.9242 31.681C32.5545 31.6803 32.1992 31.8246 31.9347 32.0829C30.4649 33.5841 29.4426 35.4652 28.9825 37.5151C28.5225 39.565 28.6428 41.7026 29.33 43.6879C28.4564 44.6206 27.9798 45.8564 28.0007 47.1341C28.0216 48.4118 28.5384 49.6314 29.442 50.535C30.3457 51.4386 31.5652 51.9555 32.8429 51.9764C34.1206 51.9973 35.3564 51.5206 36.2891 50.6471C37.4819 51.0632 38.7366 51.2742 40 51.2712C42.9943 51.2678 45.865 50.0768 47.9823 47.9595C50.0996 45.8421 51.2906 42.9714 51.294 39.9771C51.2971 38.7138 51.0861 37.4591 50.6699 36.2663C51.3273 35.5645 51.7647 34.6856 51.9283 33.738C52.0918 32.7904 51.9743 31.8157 51.5903 30.9341C51.2062 30.0526 50.5724 29.3028 49.7672 28.7773C48.9619 28.2518 48.0203 27.9736 47.0588 27.9771ZM32.9412 49.1536C32.3847 49.1457 31.8538 48.9191 31.4631 48.5228C31.0724 48.1265 30.8533 47.5924 30.8533 47.0359C30.8534 46.4794 31.0724 45.9452 31.4631 45.549C31.8539 45.1527 32.3848 44.9261 32.9413 44.9183C33.4977 44.9262 34.0287 45.1527 34.4194 45.549C34.8101 45.9453 35.0292 46.4795 35.0291 47.036C35.0291 47.5925 34.8101 48.1266 34.4194 48.5229C34.0286 48.9192 33.4976 49.1457 32.9412 49.1536ZM44.9411 32.9183C44.949 32.3618 45.1756 31.8308 45.5719 31.4401C45.9682 31.0494 46.5023 30.8304 47.0588 30.8304C47.6153 30.8304 48.1495 31.0495 48.5457 31.4402C48.942 31.8309 49.1686 32.3619 49.1764 32.9184C49.1685 33.4748 48.9419 34.0058 48.5457 34.3965C48.1494 34.7872 47.6152 35.0062 47.0587 35.0062C46.5022 35.0062 45.9681 34.7872 45.5718 34.3964C45.1755 34.0057 44.949 33.4747 44.9411 32.9183Z" fill="#2475FD"/>
</svg>
