<svg width="80" height="80" viewBox="0 0 80 80" fill="none" xmlns="http://www.w3.org/2000/svg">
<g clip-path="url(#clip0_8996_95)">
<path d="M6.26643 22.9833C13.6831 14.3667 27.5498 8.33333 39.9998 8.33333C52.9164 8.33333 66.6664 14.7333 73.7331 22.9667C73.8754 23.133 74.049 23.2697 74.2441 23.3689C74.4392 23.4682 74.6519 23.528 74.8701 23.545C75.0883 23.5621 75.3078 23.5359 75.5159 23.4682C75.724 23.4004 75.9168 23.2923 76.0831 23.15C76.2494 23.0077 76.3861 22.8341 76.4854 22.639C76.5846 22.4439 76.6444 22.2312 76.6615 22.013C76.6785 21.7948 76.6524 21.5753 76.5846 21.3672C76.5168 21.1591 76.4087 20.9663 76.2664 20.8C68.5331 11.7667 53.7664 5 39.9998 5C26.6664 5 11.6664 11.5 3.73309 20.8167C3.44578 21.1526 3.30368 21.5889 3.33806 22.0296C3.37244 22.4703 3.58049 22.8793 3.91643 23.1667C4.25237 23.454 4.68869 23.5961 5.1294 23.5617C5.57011 23.5273 5.97911 23.3193 6.26643 22.9833Z" fill="#2475FD"/>
<path d="M49.9998 39.0998C50.8882 38.5902 51.6472 37.8828 52.218 37.0324C52.7888 36.1821 53.1559 35.2116 53.291 34.1964C53.4261 33.1812 53.3255 32.1486 52.997 31.1785C52.6684 30.2085 52.1208 29.3272 51.3967 28.603C50.6725 27.8788 49.7912 27.3312 48.8211 27.0027C47.8511 26.6742 46.8184 26.5736 45.8032 26.7086C44.788 26.8437 43.8176 27.2109 42.9672 27.7817C42.1169 28.3524 41.4094 29.1115 40.8998 29.9998C38.856 29.8228 36.8073 30.2787 35.0314 31.3056C33.2554 32.3325 31.8383 33.8808 30.9722 35.7404C30.106 37.6 29.8327 39.681 30.1894 41.7012C30.5461 43.7214 31.5155 45.583 32.9661 47.0336C34.4166 48.4842 36.2783 49.4536 38.2985 49.8102C40.3186 50.1669 42.3997 49.8936 44.2593 49.0275C46.1189 48.1613 47.6671 46.7442 48.694 44.9683C49.7209 43.1924 50.1768 41.1436 49.9998 39.0998ZM46.6665 29.9998C47.3258 29.9998 47.9702 30.1953 48.5184 30.5616C49.0666 30.9279 49.4938 31.4485 49.7461 32.0575C49.9984 32.6666 50.0644 33.3369 49.9358 33.9835C49.8072 34.6301 49.4897 35.224 49.0235 35.6902C48.5574 36.1564 47.9634 36.4738 47.3168 36.6024C46.6702 36.7311 46 36.6651 45.3909 36.4128C44.7818 36.1605 44.2612 35.7332 43.8949 35.1851C43.5287 34.6369 43.3332 33.9924 43.3332 33.3332C43.3332 32.4491 43.6844 31.6013 44.3095 30.9761C44.9346 30.351 45.7824 29.9998 46.6665 29.9998ZM39.9998 46.6665C38.2317 46.6665 36.536 45.9641 35.2858 44.7139C34.0355 43.4636 33.3332 41.7679 33.3332 39.9998C33.3332 38.2317 34.0355 36.536 35.2858 35.2858C36.536 34.0355 38.2317 33.3332 39.9998 33.3332C39.9998 35.1013 40.7022 36.797 41.9525 38.0472C43.2027 39.2974 44.8984 39.9998 46.6665 39.9998C46.6665 41.7679 45.9641 43.4636 44.7139 44.7139C43.4636 45.9641 41.7679 46.6665 39.9998 46.6665Z" fill="#2475FD"/>
<path d="M74.0332 48.1835C76.3149 46.0256 78.2589 43.5366 79.7999 40.8002C79.9461 40.5468 80.0231 40.2594 80.0231 39.9668C80.0231 39.6743 79.9461 39.3869 79.7999 39.1335C72.8998 26.5002 54.7832 18.3335 39.9999 18.3335C25.5165 18.3335 7.09985 26.5502 0.199853 39.2002C0.0535729 39.4535 -0.0234375 39.7409 -0.0234375 40.0335C-0.0234375 40.3261 0.0535729 40.6135 0.199853 40.8668C7.48319 54.2002 27.5832 62.8168 43.3332 61.5835C43.3197 63.8088 43.7151 66.0177 44.4999 68.1002C33.8438 69.0372 23.1825 66.3602 14.2332 60.5002C13.8575 60.2615 13.4023 60.1818 12.9678 60.2787C12.5334 60.3756 12.1552 60.6411 11.9165 61.0168C11.6778 61.3926 11.5982 61.8477 11.6951 62.2822C11.792 62.7166 12.0575 63.0948 12.4332 63.3335C22.3645 69.8156 34.2539 72.611 46.0332 71.2335C55.7665 87.0668 79.9998 80.0002 79.9998 61.6668C79.9999 59.1276 79.4692 56.6165 78.4417 54.2945C77.4141 51.9725 75.9125 49.891 74.0332 48.1835ZM76.4165 40.0002C75.4583 41.5921 74.3415 43.083 73.0832 44.4502C73.4918 41.492 73.4918 38.4917 73.0832 35.5335C74.35 36.8996 75.4675 38.3969 76.4165 40.0002ZM68.8165 31.6668C70.0912 36.0286 70.3421 40.6256 69.5499 45.1002C67.0045 43.8771 64.2065 43.2718 61.3832 43.3335C61.9409 39.8608 61.6367 36.3043 60.4975 32.9767C59.3583 29.6491 57.4189 26.6524 54.8498 24.2502C59.8851 25.9292 64.6054 28.4358 68.8165 31.6668ZM43.7165 57.9168C39.8519 58.7236 35.83 58.2613 32.2492 56.5987C28.6685 54.936 25.72 52.1619 23.8425 48.689C21.965 45.216 21.2588 41.2298 21.8289 37.3232C22.3989 33.4166 24.2148 29.7984 27.0064 27.0068C29.7981 24.2151 33.4163 22.3992 37.3229 21.8292C41.2295 21.2591 45.2157 21.9654 48.6887 23.8428C52.1616 25.7203 54.9357 28.6688 56.5984 32.2495C58.261 35.8303 58.7233 39.8522 57.9165 43.7168C54.4248 44.4457 51.2216 46.1774 48.6993 48.6997C46.1771 51.2219 44.4454 54.4251 43.7165 57.9168ZM3.58319 40.0002C4.54373 38.415 5.6604 36.9298 6.91652 35.5668C6.50069 38.5078 6.50069 41.4926 6.91652 44.4335C5.6604 43.0705 4.54373 41.5854 3.58319 40.0002ZM11.1832 48.3335C9.59983 42.9248 9.59983 37.1756 11.1832 31.7668C15.3952 28.529 20.1147 26.0115 25.1499 24.3168C22.9984 26.3339 21.2835 28.7709 20.1111 31.477C18.9388 34.1832 18.3339 37.101 18.3339 40.0502C18.3339 42.9993 18.9388 45.9172 20.1111 48.6233C21.2835 51.3294 22.9984 53.7664 25.1499 55.7835C20.1147 54.0888 15.3952 51.5714 11.1832 48.3335ZM61.6665 76.6668C58.6998 76.6668 55.7997 75.7871 53.333 74.1389C50.8662 72.4907 48.9436 70.148 47.8083 67.4071C46.673 64.6662 46.376 61.6502 46.9547 58.7405C47.5335 55.8308 48.9621 53.158 51.0599 51.0602C53.1577 48.9624 55.8304 47.5338 58.7402 46.955C61.6499 46.3763 64.6659 46.6733 67.4068 47.8086C70.1477 48.9439 72.4903 50.8665 74.1386 53.3333C75.7868 55.8 76.6665 58.7001 76.6665 61.6668C76.6665 65.6451 75.0862 69.4604 72.2731 72.2734C69.4601 75.0865 65.6448 76.6668 61.6665 76.6668Z" fill="#2475FD"/>
<path d="M71.6667 60C68.3333 60 70.8333 60.4333 68.6167 57.0833L69.9167 55.7833C70.2305 55.4695 70.4068 55.0438 70.4068 54.6C70.4068 54.1562 70.2305 53.7305 69.9167 53.4167C69.6028 53.1028 69.1772 52.9265 68.7333 52.9265C68.2895 52.9265 67.8638 53.1028 67.55 53.4167L66.25 54.7167C63.0333 52.5833 63.3333 54.8667 63.3333 51.6667C63.3333 51.2246 63.1577 50.8007 62.8452 50.4882C62.5326 50.1756 62.1087 50 61.6667 50C61.2246 50 60.8007 50.1756 60.4882 50.4882C60.1756 50.8007 60 51.2246 60 51.6667C60 55 60.4333 52.5 57.0833 54.7167L55.7833 53.4167C55.4695 53.1028 55.0438 52.9265 54.6 52.9265C54.1562 52.9265 53.7305 53.1028 53.4167 53.4167C53.1028 53.7305 52.9265 54.1562 52.9265 54.6C52.9265 55.0438 53.1028 55.4695 53.4167 55.7833L54.7167 57.0833C52.5833 60.3 54.8667 60 51.6667 60C51.2246 60 50.8007 60.1756 50.4882 60.4882C50.1756 60.8007 50 61.2246 50 61.6667C50 62.1087 50.1756 62.5326 50.4882 62.8452C50.8007 63.1577 51.2246 63.3333 51.6667 63.3333C55 63.3333 52.5 62.9 54.7167 66.25L53.4167 67.55C53.2558 67.7054 53.1271 67.891 53.038 68.0961C52.9488 68.3012 52.9009 68.5219 52.897 68.7455C52.8932 68.9692 52.9334 69.1914 53.0154 69.3995C53.0974 69.6076 53.2196 69.7975 53.375 69.9583C53.5304 70.1192 53.716 70.2479 53.9211 70.337C54.1262 70.4262 54.3469 70.4741 54.5705 70.478C54.7942 70.4818 55.0164 70.4416 55.2245 70.3596C55.4326 70.2776 55.6225 70.1554 55.7833 70C58.15 67.6333 56.0333 69.1 60 69.9167V71.6667C60 72.1087 60.1756 72.5326 60.4882 72.8452C60.8007 73.1577 61.2246 73.3333 61.6667 73.3333C62.1087 73.3333 62.5326 73.1577 62.8452 72.8452C63.1577 72.5326 63.3333 72.1087 63.3333 71.6667V69.8333C67.2 69.05 65.2167 67.5833 67.55 69.9167C67.8638 70.2416 68.2939 70.4285 68.7455 70.4363C69.1972 70.4441 69.6334 70.2722 69.9583 69.9583C70.2832 69.6445 70.4701 69.2145 70.478 68.7628C70.4858 68.3111 70.3138 67.8749 70 67.55L68.7 66.25C70.75 63.0333 68.4667 63.3333 71.6667 63.3333C72.1087 63.3333 72.5326 63.1577 72.8452 62.8452C73.1577 62.5326 73.3333 62.1087 73.3333 61.6667C73.3333 61.2246 73.1577 60.8007 72.8452 60.4882C72.5326 60.1756 72.1087 60 71.6667 60ZM61.6667 66.6667C60.6778 66.6667 59.7111 66.3734 58.8888 65.824C58.0666 65.2746 57.4257 64.4937 57.0473 63.5801C56.6688 62.6665 56.5698 61.6611 56.7627 60.6912C56.9557 59.7213 57.4319 58.8304 58.1311 58.1311C58.8304 57.4319 59.7213 56.9557 60.6912 56.7627C61.6611 56.5698 62.6665 56.6688 63.5801 57.0473C64.4937 57.4257 65.2746 58.0666 65.824 58.8888C66.3734 59.7111 66.6667 60.6778 66.6667 61.6667C66.6667 62.9928 66.1399 64.2645 65.2022 65.2022C64.2645 66.1399 62.9928 66.6667 61.6667 66.6667Z" fill="#2475FD"/>
<path d="M59.9997 58.3335C59.5576 58.3335 59.1337 58.5091 58.8212 58.8217C58.5086 59.1342 58.333 59.5581 58.333 60.0002C58.333 60.4422 58.5086 60.8661 58.8212 61.1787C59.1337 61.4912 59.5576 61.6668 59.9997 61.6668C60.4417 61.6668 60.8656 61.4912 61.1782 61.1787C61.4907 60.8661 61.6663 60.4422 61.6663 60.0002C61.6663 59.5581 61.4907 59.1342 61.1782 58.8217C60.8656 58.5091 60.4417 58.3335 59.9997 58.3335Z" fill="#2475FD"/>
<path d="M63.3332 61.6665C62.8911 61.6665 62.4672 61.8421 62.1547 62.1547C61.8421 62.4672 61.6665 62.8911 61.6665 63.3332C61.6665 63.7752 61.8421 64.1991 62.1547 64.5117C62.4672 64.8242 62.8911 64.9998 63.3332 64.9998C63.7752 64.9998 64.1991 64.8242 64.5117 64.5117C64.8242 64.1991 64.9998 63.7752 64.9998 63.3332C64.9998 62.8911 64.8242 62.4672 64.5117 62.1547C64.1991 61.8421 63.7752 61.6665 63.3332 61.6665Z" fill="#2475FD"/>
</g>
<defs>
<clipPath id="clip0_8996_95">
<rect width="80" height="80" fill="white"/>
</clipPath>
</defs>
</svg>
