<svg width="18" height="18" viewBox="0 0 18 18" fill="none" xmlns="http://www.w3.org/2000/svg">
<path d="M13.6846 11.9072C13.0965 11.3267 12.3624 11.3267 11.7781 11.9072C11.3323 12.3492 10.8866 12.7912 10.4484 13.2407C10.3285 13.3643 10.2274 13.3905 10.0813 13.3081C9.79288 13.1508 9.48574 13.0234 9.20857 12.8511C7.91633 12.0383 6.83384 10.9933 5.87496 9.81719C5.39926 9.23287 4.97601 8.60735 4.6801 7.90317C4.62017 7.76083 4.63141 7.66719 4.74752 7.55108C5.19325 7.12033 5.62774 6.67835 6.06598 6.23636C6.67652 5.62208 6.67652 4.90292 6.06224 4.28489C5.71389 3.9328 5.36555 3.5882 5.01721 3.23611C4.65763 2.87653 4.30179 2.51321 3.93847 2.15737C3.3504 1.58429 2.61626 1.58429 2.03194 2.16112C1.58246 2.6031 1.15172 3.05632 0.694749 3.49082C0.271493 3.8916 0.0579922 4.38228 0.0130446 4.95536C-0.0581224 5.88802 0.170361 6.76824 0.492485 7.62599C1.15172 9.40142 2.15555 10.9783 3.37288 12.4241C5.01721 14.3794 6.97992 15.9263 9.27599 17.0425C10.3098 17.5444 11.381 17.9302 12.5459 17.9939C13.3475 18.0388 14.0442 17.8366 14.6023 17.2111C14.9843 16.7841 15.4151 16.3945 15.8196 15.9862C16.4189 15.3794 16.4227 14.6453 15.8271 14.046C15.1154 13.3306 14.4 12.6189 13.6846 11.9072Z" fill="#2475FD"/>
<path d="M12.969 8.92199L14.3511 8.68601C14.1338 7.41625 13.5345 6.26634 12.6244 5.3524C11.6617 4.38978 10.4444 3.78298 9.10346 3.5957L8.90869 4.98533C9.94623 5.13141 10.8901 5.59961 11.6355 6.345C12.3397 7.04917 12.8004 7.94063 12.969 8.92199Z" fill="#2475FD"/>
<path d="M15.1302 2.9141C13.5346 1.31846 11.5157 0.310887 9.28706 0L9.09229 1.38963C11.0175 1.65931 12.763 2.53205 14.1414 3.90669C15.4486 5.21392 16.3064 6.86574 16.6173 8.68237L17.9994 8.4464C17.6361 6.34135 16.6435 4.43108 15.1302 2.9141Z" fill="#2475FD"/>
</svg>
