<svg width="16" height="16" viewBox="0 0 16 16" fill="none" xmlns="http://www.w3.org/2000/svg">
<path d="M15 3.47998V4.98499H1V3.47998C1 2.655 1.67499 1.97998 2.5 1.97998H4.25V3.45999C4.25 3.73499 4.47501 3.95999 4.75 3.95999C5.02499 3.95999 5.25 3.73499 5.25 3.45999V1.97998H10.75V3.45999C10.75 3.73499 10.975 3.95999 11.25 3.95999C11.525 3.95999 11.75 3.73499 11.75 3.45999V1.97998H13.5C14.325 1.97998 15 2.655 15 3.47998Z" fill="#2475FD"/>
<path d="M11 10.99H14.695L10.5 14.73V11.49C10.5 11.215 10.725 10.99 11 10.99Z" fill="#2475FD"/>
<path d="M15 5.98486V9.98987H11C10.175 9.98987 9.5 10.6649 9.5 11.4899V14.9999H2.5C1.67499 14.9999 1 14.3249 1 13.4999V5.98486H15Z" fill="#2475FD"/>
<path d="M5.25 1.5V1.97998H4.25V1.5C4.25 1.22501 4.47501 1 4.75 1C5.02499 1 5.25 1.22501 5.25 1.5Z" fill="#2475FD"/>
<path d="M11.75 1.5V1.97998H10.75V1.5C10.75 1.22501 10.975 1 11.25 1C11.525 1 11.75 1.22501 11.75 1.5Z" fill="#2475FD"/>
</svg>
