<svg width="50" height="50" viewBox="0 0 50 50" fill="none" xmlns="http://www.w3.org/2000/svg">
<path d="M11.7188 7.59204C5.25566 7.59204 0 12.8492 0 19.3108C0 25.2102 4.38027 30.1054 10.0622 30.9123C9.60732 34.2167 8.34561 37.361 6.37432 40.0875C5.99092 40.6197 6.00527 41.3407 6.41436 41.8556C6.81572 42.3623 7.51318 42.5544 8.12529 42.2962C17.4265 38.4139 23.4375 29.3902 23.4375 19.3108C23.4375 12.8492 18.1818 7.59204 11.7188 7.59204ZM38.2812 7.59204C31.8182 7.59204 26.5625 12.8492 26.5625 19.3108C26.5625 25.2102 30.9428 30.1054 36.6247 30.9123C36.1698 34.2167 34.9081 37.361 32.9368 40.0875C32.5534 40.6197 32.5678 41.3407 32.9769 41.8556C33.3782 42.3623 34.0757 42.5544 34.6878 42.2962C43.989 38.4139 50 29.3902 50 19.3108C50 12.8492 44.7443 7.59204 38.2812 7.59204Z" fill="#021524"/>
</svg>
